<svg width="1080" height="1080" viewBox="0 0 1080 1080" fill="none" xmlns="http://www.w3.org/2000/svg">
<g clip-path="url(#clip0_2632_4075)">
<mask id="mask0_2632_4075" style="mask-type:luminance" maskUnits="userSpaceOnUse" x="0" y="0" width="1080" height="1080">
<path d="M1080 0H0V1080H1080V0Z" fill="white"/>
</mask>
<g mask="url(#mask0_2632_4075)">
<mask id="mask1_2632_4075" style="mask-type:luminance" maskUnits="userSpaceOnUse" x="0" y="0" width="1080" height="1080">
<path d="M0 0H1080V1080H0V0Z" fill="white"/>
</mask>
<g mask="url(#mask1_2632_4075)">
<path d="M540 155C752.482 155 925 327.518 925 540C925 752.482 752.482 925 540 925C327.518 925 155 752.482 155 540C155 327.518 327.518 155 540 155Z" fill="url(#paint0_radial_2632_4075)"/>
</g>
<path d="M694.563 657.764C666.501 703.667 611.813 736.5 540.093 736.5C530.824 736.5 521.891 735.961 513.299 734.923" stroke="black" stroke-width="30" stroke-linecap="round"/>
<path d="M429 357.55C446.17 357.55 460.11 379.261 460.11 406C460.11 432.74 446.17 454.45 429 454.45C411.83 454.45 397.89 432.74 397.89 406C397.89 379.261 411.83 357.55 429 357.55Z" fill="black"/>
<path d="M653 357.55C670.17 357.55 684.11 379.261 684.11 406C684.11 432.74 670.17 454.45 653 454.45C635.83 454.45 621.89 432.74 621.89 406C621.89 379.261 635.83 357.55 653 357.55Z" fill="black"/>
<path d="M180.197 418.283C184.442 447.291 202.837 508.843 218.402 539.973C233.967 571.103 256.607 600.815 314.622 600.815C372.637 600.815 441.969 599.403 476.636 536.436C511.304 473.468 512.011 442.338 516.964 422.528C516.964 422.528 526.869 363.806 495.739 355.316C464.609 346.826 404.474 327.016 307.547 331.969C217.343 336.579 187.979 349.656 180.197 351.779C172.414 353.901 165.339 362.391 165.339 371.589C165.339 380.786 166.754 402.719 170.292 406.964C173.829 411.209 180.197 418.283 180.197 418.283Z" fill="black"/>
<path d="M899.806 418.283C895.561 447.291 877.166 508.843 861.601 539.973C846.036 571.103 823.396 600.815 765.381 600.815C707.366 600.815 638.031 599.403 603.364 536.436C568.696 473.468 567.989 442.338 563.036 422.528C563.036 422.528 553.131 363.806 584.261 355.316C615.391 346.826 675.529 327.016 772.456 331.969C862.66 336.579 892.024 349.656 899.806 351.779C907.589 353.901 914.664 362.391 914.664 371.589C914.664 380.786 913.249 402.719 909.711 406.964C906.174 411.209 899.806 418.283 899.806 418.283Z" fill="black"/>
<path d="M492.196 354.337C505.364 357.625 521.452 360.172 538.828 360.172C558.808 360.172 577.093 357.62 591.198 353.386C598.669 351.142 579.048 439.808 579.048 439.808H566.548C564.015 428.718 552.129 421.187 540.074 421.187C527.99 421.187 516.171 428.805 513.455 439.808H494.678L492.196 354.337Z" fill="black"/>
<path d="M813.845 361.505C782.007 356.553 721.516 346.119 642.984 362.391C564.451 378.664 591.831 445.964 594.874 458.611C599.354 477.241 625.769 556.011 674.114 569.688C708.807 579.503 780.592 587.376 806.062 570.396C831.532 553.416 842.499 538.912 855.941 488.326C869.344 437.893 877.166 398.943 861.601 381.963C846.036 364.983 813.845 361.505 813.845 361.505Z" fill="url(#paint1_linear_2632_4075)"/>
<path d="M266.158 361.505C297.995 356.553 358.484 346.119 437.016 362.391C515.549 378.664 488.169 445.964 485.126 458.611C480.647 477.241 454.234 556.011 405.889 569.688C371.196 579.503 299.41 587.376 273.94 570.396C248.47 553.416 237.504 538.912 224.062 488.326C210.659 437.893 202.837 398.943 218.402 381.963C233.967 364.983 266.158 361.505 266.158 361.505Z" fill="url(#paint2_linear_2632_4075)"/>
<mask id="mask2_2632_4075" style="mask-type:luminance" maskUnits="userSpaceOnUse" x="589" y="355" width="283" height="227">
<path d="M815.26 362.92C783.422 357.968 722.931 347.534 644.399 363.806C565.866 380.079 593.246 447.379 596.289 460.026C600.769 478.656 627.184 557.426 675.529 571.103C710.222 580.918 782.007 588.791 807.477 571.811C832.947 554.831 843.914 540.327 857.356 489.741C870.759 439.308 878.581 400.358 863.016 383.378C847.451 366.398 815.26 362.92 815.26 362.92Z" fill="white"/>
</mask>
<g mask="url(#mask2_2632_4075)">
<path d="M1223.72 -103.082L818.215 1011.03L773.046 994.592L1178.55 -119.523L1223.72 -103.082ZM1413.55 -122.615L1008.05 991.5L906.329 954.477L1311.83 -159.638L1413.55 -122.615Z" fill="white"/>
</g>
</g>
</g>
<defs>
<radialGradient id="paint0_radial_2632_4075" cx="0" cy="0" r="1" gradientUnits="userSpaceOnUse" gradientTransform="translate(607.75 465.523) scale(484.095)">
<stop stop-color="#FDD737"/>
<stop offset="0.65" stop-color="#F4B945"/>
<stop offset="0.88" stop-color="#EA9A52"/>
<stop offset="0.95" stop-color="#F3B751"/>
<stop offset="1" stop-color="#FBD450"/>
</radialGradient>
<linearGradient id="paint1_linear_2632_4075" x1="522.638" y1="295.685" x2="509.459" y2="578.093" gradientUnits="userSpaceOnUse">
<stop stop-color="#444444"/>
<stop offset="0.75" stop-color="#2D2D2D"/>
<stop offset="1" stop-color="#161616"/>
</linearGradient>
<linearGradient id="paint2_linear_2632_4075" x1="522.638" y1="295.685" x2="509.459" y2="578.093" gradientUnits="userSpaceOnUse">
<stop stop-color="#444444"/>
<stop offset="0.75" stop-color="#2D2D2D"/>
<stop offset="1" stop-color="#161616"/>
</linearGradient>
<clipPath id="clip0_2632_4075">
<rect width="1080" height="1080" fill="white"/>
</clipPath>
</defs>
</svg>
