<svg width="1080" height="1080" viewBox="0 0 1080 1080" fill="none" xmlns="http://www.w3.org/2000/svg">
<g clip-path="url(#clip0_2632_4201)">
<mask id="mask0_2632_4201" style="mask-type:luminance" maskUnits="userSpaceOnUse" x="0" y="0" width="1080" height="1080">
<path d="M1080 0H0V1080H1080V0Z" fill="white"/>
</mask>
<g mask="url(#mask0_2632_4201)">
<path d="M540 155C752.482 155 925 327.518 925 540C925 752.482 752.482 925 540 925C327.518 925 155 752.482 155 540C155 327.518 327.518 155 540 155Z" fill="url(#paint0_radial_2632_4201)"/>
<path d="M419 479.406C436.17 479.406 450.11 501.117 450.11 527.856C450.11 554.596 436.17 576.306 419 576.306C401.83 576.306 387.89 554.596 387.89 527.856C387.89 501.117 401.83 479.406 419 479.406Z" fill="black"/>
<path d="M455.92 502.275C405.24 447.675 344.936 448.155 344.936 448.155" stroke="black" stroke-width="30" stroke-linecap="round" stroke-linejoin="round"/>
<path d="M661 479.406C678.17 479.406 692.11 501.117 692.11 527.856C692.11 554.596 678.17 576.306 661 576.306C643.83 576.306 629.89 554.596 629.89 527.856C629.89 501.117 643.83 479.406 661 479.406Z" fill="black"/>
<path d="M624.08 502.275C674.76 447.675 735.064 448.155 735.064 448.155" stroke="black" stroke-width="30" stroke-linecap="round" stroke-linejoin="round"/>
<path d="M448 794.075C487 770.904 511.376 768.691 540.765 768.427C569.882 768.165 595 774.641 632 794.075C626.899 700.794 582.757 654.495 540 654.495C497.963 654.495 454.486 704.455 448 794.075Z" stroke="black" stroke-width="30" stroke-linecap="round" stroke-linejoin="round"/>
<path d="M448 794.075C487 770.904 511.376 768.691 540.765 768.427C569.882 768.165 595 774.641 632 794.075C626.899 700.794 582.757 654.495 540 654.495C497.963 654.495 454.486 704.455 448 794.075Z" fill="black"/>
<path d="M885.335 618.563V836.118H194.665V618.563H885.335Z" fill="black"/>
<path d="M756.974 772.802C754.555 775.962 751.462 777.54 747.699 777.54C743.8 777.54 740.674 775.962 738.323 772.802C735.97 769.644 734.794 764.636 734.794 757.78C734.794 750.925 735.97 745.952 738.323 742.859C740.674 739.768 743.8 738.221 747.699 738.221C751.462 738.221 754.555 739.768 756.974 742.859C759.394 745.952 760.604 750.925 760.604 757.78C760.604 764.636 759.394 769.644 756.974 772.802ZM773.71 728.745C767.258 722.024 758.587 718.663 747.699 718.663C736.811 718.663 728.14 722.024 721.688 728.745C715.236 735.467 712.01 745.146 712.01 757.78C712.01 770.417 715.236 780.095 721.688 786.816C728.14 793.538 736.811 796.898 747.699 796.898C758.587 796.898 767.258 793.538 773.71 786.816C780.163 780.095 783.387 770.417 783.387 757.78C783.387 745.146 780.163 735.467 773.71 728.745ZM644.26 793.671H672.287L751.127 653.938H723.1L644.26 793.671ZM657.366 704.851C654.947 708.01 651.853 709.589 648.091 709.589C644.191 709.589 641.066 708.01 638.715 704.851C636.362 701.693 635.186 696.684 635.186 689.829C635.186 682.973 636.362 678.001 638.715 674.908C641.066 671.817 644.191 670.27 648.091 670.27C651.853 670.27 654.947 671.817 657.366 674.908C659.786 678.001 660.996 682.973 660.996 689.829C660.996 696.684 659.786 701.693 657.366 704.851ZM674.102 660.793C667.65 654.073 658.979 650.711 648.091 650.711C637.203 650.711 628.532 654.073 622.08 660.793C615.628 667.516 612.401 677.194 612.401 689.829C612.401 702.465 615.628 712.144 622.08 718.864C628.532 725.587 637.203 728.946 648.091 728.946C658.979 728.946 667.65 725.587 674.102 718.864C680.554 712.144 683.781 702.465 683.781 689.829C683.781 677.194 680.554 667.516 674.102 660.793Z" fill="white"/>
<path d="M285.646 711.404H309.036L304.28 736.205H280.89L285.646 711.404ZM296.678 653.938H270.465L263.886 688.216H235.582V711.404H259.434L254.677 736.205H235.582V759.393H250.225L243.648 793.671H269.86L276.438 759.393H299.827L293.25 793.671H319.463L326.04 759.393H354.346V736.205H330.492L335.249 711.404H354.346V688.216H339.701L346.28 653.938H320.068L313.488 688.216H290.098L296.678 653.938Z" fill="white"/>
<path d="M834.383 764.031C830.551 760.805 826.216 759.192 821.377 759.192C816.538 759.192 812.203 760.805 808.371 764.031C804.54 767.257 802.625 771.829 802.625 777.742C802.625 783.658 804.54 788.228 808.371 791.454C812.203 794.68 816.538 796.293 821.377 796.293C826.216 796.293 830.551 794.68 834.383 791.454C838.214 788.228 840.129 783.658 840.129 777.742C840.129 771.829 838.214 767.257 834.383 764.031ZM837.508 653.938H805.448V690.031C805.448 700.919 805.883 711.07 806.758 720.478C807.632 729.888 808.74 739.432 810.085 749.11H833.072C834.415 739.432 835.492 729.888 836.298 720.478C837.105 711.07 837.508 700.919 837.508 690.031V653.938Z" fill="white"/>
<path d="M411.681 816.65H437.087V792.051C443.673 790.976 449.218 789.232 453.722 786.812C458.225 784.393 461.888 781.503 464.711 778.144C467.534 774.785 469.551 771.125 470.76 767.161C471.97 763.197 472.575 759.202 472.575 755.17C472.575 749.26 471.533 744.086 469.45 739.65C467.365 735.218 464.475 731.356 460.779 728.064C457.081 724.775 452.714 721.847 447.673 719.288C442.632 716.73 437.154 714.371 431.24 712.215C427.34 710.866 424.013 709.624 421.259 708.477C418.502 707.333 416.184 706.154 414.302 704.944C412.419 703.734 411.042 702.357 410.169 700.811C409.294 699.266 408.858 697.417 408.858 695.266C408.858 691.771 410.27 688.948 413.093 686.797C415.915 684.647 420.553 683.571 427.005 683.571C433.458 683.571 439.608 684.244 445.455 685.587C451.303 686.932 456.444 688.545 460.88 690.426L467.131 666.23C464.173 664.887 460.175 663.542 455.134 662.197C450.093 660.854 444.076 659.846 437.087 659.173V638.203H411.681V659.979C405.765 661.056 400.658 662.77 396.357 665.121C392.054 667.474 388.559 670.331 385.872 673.691C383.182 677.052 381.2 680.782 379.923 684.881C378.645 688.983 378.008 693.249 378.008 697.685C378.008 703.466 379.048 708.406 381.133 712.505C383.216 716.607 385.972 720.067 389.4 722.89C392.828 725.713 396.659 728.1 400.894 730.048C405.128 731.998 409.463 733.778 413.899 735.391C418.468 737.004 422.501 738.516 425.997 739.928C429.492 741.339 432.381 742.785 434.668 744.263C436.952 745.743 438.7 747.388 439.91 749.203C441.12 751.018 441.725 753.204 441.725 755.756C441.725 759.789 440.213 762.914 437.188 765.132C434.163 767.35 428.55 768.459 420.351 768.459C413.093 768.459 406.203 767.52 399.684 765.637C393.163 763.755 387.551 761.672 382.847 759.386L374.177 782.574C377.133 784.054 381.67 785.901 387.787 788.119C393.903 790.337 401.867 791.849 411.681 792.656V816.65Z" fill="white"/>
<path d="M548.561 700.135C545.454 703.502 541.742 706.398 537.423 708.821C534.241 705.821 531.642 702.677 529.626 699.383C527.609 696.09 526.601 692.696 526.601 689.2C526.601 685.034 527.777 681.639 530.13 679.017C532.481 676.396 535.808 675.086 540.111 675.086C544.815 675.086 548.176 676.297 550.192 678.721C552.209 681.147 553.217 683.907 553.217 687.004C553.217 692.392 551.664 696.77 548.561 700.135ZM515.501 748.743C516.434 746.463 517.636 744.416 519.108 742.605C520.576 740.797 522.215 739.222 524.018 737.879C525.821 736.536 527.658 735.397 529.529 734.457L562.006 766.717C559.177 769.171 555.641 771.145 551.396 772.645C547.15 774.145 542.196 774.895 536.538 774.895C532.493 774.895 529.055 774.327 526.226 773.186C523.397 772.044 521.072 770.568 519.253 768.758C517.433 766.949 516.12 764.971 515.313 762.825C514.503 760.68 514.1 758.599 514.1 756.587C514.1 753.637 514.565 751.024 515.501 748.743ZM488.492 773.405C490.105 778.039 492.829 782.205 496.664 785.897C500.495 789.589 505.574 792.611 511.894 794.962C518.213 797.313 526.083 798.487 535.497 798.487C544.373 798.487 552.376 797.039 559.506 794.14C566.632 791.24 572.885 787.637 578.266 783.32C580.143 785.203 582.025 787.459 583.906 790.081C585.783 792.702 587.287 794.902 588.408 796.672H619.152C616.19 790.897 612.655 785.153 608.554 779.444C604.449 773.736 600.242 768.465 595.94 763.63C597.42 761.075 598.803 758.246 600.081 755.153C601.36 752.06 602.503 748.965 603.515 745.872C604.523 742.779 605.368 739.72 606.042 736.691C606.715 733.667 607.187 730.876 607.457 728.317L582.454 725.091C582.19 728.17 581.496 731.749 580.375 735.832C579.254 739.916 578.097 743.291 576.909 745.967L554.207 723.494C561.337 719.193 567.221 713.85 571.862 707.46C576.504 701.074 578.825 693.781 578.825 685.577C578.825 681.141 578.018 677.007 576.405 673.176C574.792 669.345 572.405 665.984 569.247 663.092C566.087 660.201 562.155 657.914 557.451 656.233C552.745 654.553 547.234 653.712 540.917 653.712C528.416 653.712 518.602 656.906 511.478 663.29C504.352 669.676 500.792 678.784 500.792 690.612C500.792 695.989 502.068 700.929 504.623 705.432C507.175 709.936 510.041 714.159 513.22 718.103C509.601 720.119 506.147 722.436 502.864 725.053C499.578 727.674 496.696 730.697 494.216 734.121C491.734 737.544 489.758 741.373 488.284 745.604C486.81 749.834 486.072 754.502 486.072 759.605C486.072 764.174 486.879 768.774 488.492 773.405Z" fill="white"/>
</g>
</g>
<defs>
<radialGradient id="paint0_radial_2632_4201" cx="0" cy="0" r="1" gradientUnits="userSpaceOnUse" gradientTransform="translate(607.75 465.523) scale(484.095)">
<stop stop-color="#FF3E3E"/>
<stop offset="0.62" stop-color="#E02C2C"/>
<stop offset="0.84" stop-color="#C21A1A"/>
<stop offset="0.93" stop-color="#E02D2D"/>
<stop offset="1" stop-color="#FF4141"/>
</radialGradient>
<clipPath id="clip0_2632_4201">
<rect width="1080" height="1080" fill="white"/>
</clipPath>
</defs>
</svg>
