<svg width="1080" height="1080" viewBox="0 0 1080 1080" fill="none" xmlns="http://www.w3.org/2000/svg">
<g clip-path="url(#clip0_2632_4351)">
<mask id="mask0_2632_4351" style="mask-type:luminance" maskUnits="userSpaceOnUse" x="0" y="0" width="1080" height="1080">
<path d="M1080 0H0V1080H1080V0Z" fill="white"/>
</mask>
<g mask="url(#mask0_2632_4351)">
<mask id="mask1_2632_4351" style="mask-type:luminance" maskUnits="userSpaceOnUse" x="-1" y="-1" width="1082" height="1082">
<path d="M-0.00219727 -0.0022583H1080V1080H-0.00219727V-0.0022583Z" fill="white"/>
</mask>
<g mask="url(#mask1_2632_4351)">
<path d="M540 154.998C752.482 154.998 925.002 327.518 925.002 540C925.002 752.482 752.482 925.002 540 925.002C327.518 925.002 154.998 752.482 154.998 540C154.998 327.518 327.518 154.998 540 154.998Z" fill="url(#paint0_radial_2632_4351)"/>
</g>
<path d="M836.431 579.189C779.928 561.099 656.257 541.267 541.059 541.267C425.826 541.267 294.882 556.249 245.165 579.156C245.165 639.919 313.388 811.385 543.785 811.385C776.607 811.385 836.431 638.706 836.431 579.189Z" fill="url(#paint1_linear_2632_4351)"/>
<mask id="mask2_2632_4351" style="mask-type:luminance" maskUnits="userSpaceOnUse" x="-1" y="21" width="1082" height="1082">
<path d="M-0.20752 21.6927H1080.21V1102.11H-0.20752V21.6927Z" fill="white"/>
</mask>
<g mask="url(#mask2_2632_4351)">
<mask id="mask3_2632_4351" style="mask-type:luminance" maskUnits="userSpaceOnUse" x="245" y="540" width="592" height="272">
<path d="M836.544 579.196C780.019 561.099 656.301 540.312 541.059 540.312C425.782 540.312 294.789 556.247 245.053 579.162C245.053 639.948 313.302 811.48 543.786 811.48C776.697 811.48 836.544 638.735 836.544 579.196Z" fill="white"/>
</mask>
<g mask="url(#mask3_2632_4351)">
<path d="M540 327.336C838.027 327.336 1080 383.535 1080 452.752C1080 521.968 838.027 578.167 540 578.167C241.973 578.167 -0.00219727 521.968 -0.00219727 452.752C-0.00219727 383.535 241.973 327.336 540 327.336Z" fill="white"/>
<path d="M539.406 732.478C702.152 732.478 834.289 796.995 834.289 876.457C834.289 955.919 702.152 1020.44 539.406 1020.44C376.66 1020.44 244.523 955.919 244.523 876.457C244.523 796.995 376.66 732.478 539.406 732.478Z" fill="url(#paint2_radial_2632_4351)"/>
</g>
</g>
<mask id="mask4_2632_4351" style="mask-type:luminance" maskUnits="userSpaceOnUse" x="49" y="70" width="594" height="594">
<path d="M49.8401 153.837L559.062 70.7403L642.158 579.962L132.936 663.058L49.8401 153.837Z" fill="white"/>
</mask>
<g mask="url(#mask4_2632_4351)">
<path d="M329.164 256.087C308.077 213.963 156.724 229.168 175.123 341.916C193.48 454.408 371.261 512.783 371.261 512.783C371.261 512.783 517.43 403.052 498.705 288.302C480.371 175.949 334.818 208.764 329.164 256.087Z" fill="url(#paint3_radial_2632_4351)"/>
</g>
<mask id="mask5_2632_4351" style="mask-type:luminance" maskUnits="userSpaceOnUse" x="404" y="53" width="630" height="631">
<path d="M1033.98 184.796L534.897 53.9201L404.022 553.003L903.104 683.878L1033.98 184.796Z" fill="white"/>
</mask>
<g mask="url(#mask5_2632_4351)">
<path d="M746.239 260.176C771.214 220.234 920.451 249.683 891.473 360.186C862.562 470.438 680.057 511.741 680.057 511.741C680.057 511.741 544.919 388.679 574.411 276.214C603.287 166.098 745.085 212.529 746.239 260.176Z" fill="url(#paint4_radial_2632_4351)"/>
</g>
</g>
</g>
<defs>
<radialGradient id="paint0_radial_2632_4351" cx="0" cy="0" r="1" gradientUnits="userSpaceOnUse" gradientTransform="translate(607.75 465.523) scale(484.097)">
<stop stop-color="#FDD737"/>
<stop offset="0.65" stop-color="#F4B945"/>
<stop offset="0.88" stop-color="#EA9A52"/>
<stop offset="0.95" stop-color="#F3B751"/>
<stop offset="1" stop-color="#FBD450"/>
</radialGradient>
<linearGradient id="paint1_linear_2632_4351" x1="540" y1="561.9" x2="543.647" y2="813.592" gradientUnits="userSpaceOnUse">
<stop stop-color="#2F2F2F"/>
<stop offset="0.47" stop-color="#181818"/>
<stop offset="1"/>
</linearGradient>
<radialGradient id="paint2_radial_2632_4351" cx="0" cy="0" r="1" gradientUnits="userSpaceOnUse" gradientTransform="translate(542.226 728.744) scale(183.595 89.6421)">
<stop stop-color="#E53E3E"/>
<stop offset="0.75" stop-color="#BC2828"/>
<stop offset="1" stop-color="#921313"/>
</radialGradient>
<radialGradient id="paint3_radial_2632_4351" cx="0" cy="0" r="1" gradientUnits="userSpaceOnUse" gradientTransform="translate(389.587 280.923) rotate(-9.268) scale(233.883 233.883)">
<stop stop-color="#E53D3D"/>
<stop offset="0.63" stop-color="#C02A2A"/>
<stop offset="1" stop-color="#9A1717"/>
</radialGradient>
<radialGradient id="paint4_radial_2632_4351" cx="0" cy="0" r="1" gradientUnits="userSpaceOnUse" gradientTransform="translate(683.738 279.187) rotate(-165.306) scale(233.883 233.883)">
<stop stop-color="#E53D3D"/>
<stop offset="0.63" stop-color="#C02A2A"/>
<stop offset="1" stop-color="#9A1717"/>
</radialGradient>
<clipPath id="clip0_2632_4351">
<rect width="1080" height="1080" fill="white"/>
</clipPath>
</defs>
</svg>
