<svg width="1080" height="1080" viewBox="0 0 1080 1080" fill="none" xmlns="http://www.w3.org/2000/svg">
<g clip-path="url(#clip0_2636_4730)">
<mask id="mask0_2636_4730" style="mask-type:luminance" maskUnits="userSpaceOnUse" x="0" y="0" width="1080" height="1080">
<path d="M1080 0H0V1080H1080V0Z" fill="white"/>
</mask>
<g mask="url(#mask0_2636_4730)">
<mask id="mask1_2636_4730" style="mask-type:luminance" maskUnits="userSpaceOnUse" x="0" y="0" width="1080" height="1080">
<path d="M0 0H1080V1080H0V0Z" fill="white"/>
</mask>
<g mask="url(#mask1_2636_4730)">
<path d="M540 155C752.482 155 925 327.518 925 540C925 752.482 752.482 925 540 925C327.518 925 155 752.482 155 540C155 327.518 327.518 155 540 155Z" fill="url(#paint0_radial_2636_4730)"/>
</g>
<path d="M361.342 676.699C394.711 638.478 472.288 610 537.796 610C609.397 610 678.989 637.953 712.6 676.356" stroke="black" stroke-width="30" stroke-linecap="round"/>
<path d="M459.296 419.732C453.796 433 434.067 445.5 404.796 445.5C375.525 445.5 355.296 432 350.296 419.732" stroke="black" stroke-width="25" stroke-linecap="round"/>
<path d="M616.296 419.732C621.796 433 641.525 445.5 670.796 445.5C700.067 445.5 720.296 432 725.296 419.732" stroke="black" stroke-width="25" stroke-linecap="round"/>
<path d="M481.716 362.418C431.036 307.818 352.732 306.298 352.732 306.298" stroke="black" stroke-width="25" stroke-linecap="round" stroke-linejoin="round"/>
<path d="M593.876 362.418C644.556 307.818 722.86 306.298 722.86 306.298" stroke="black" stroke-width="25" stroke-linecap="round" stroke-linejoin="round"/>
<mask id="mask2_2636_4730" style="mask-type:luminance" maskUnits="userSpaceOnUse" x="-15" y="-27" width="1113" height="1114">
<path d="M18.0815 -26.09L1097.59 6.57133L1064.93 1086.08L-14.5798 1053.42L18.0815 -26.09Z" fill="white"/>
</mask>
<g mask="url(#mask2_2636_4730)">
<g opacity="0.31">
<mask id="mask3_2636_4730" style="mask-type:luminance" maskUnits="userSpaceOnUse" x="153" y="155" width="771" height="770">
<path d="M549.842 155.207C337.383 148.779 159.94 315.8 153.512 528.259C147.084 740.718 314.105 918.161 526.564 924.589C739.023 931.017 916.466 763.996 922.894 551.538C929.322 339.079 762.301 161.636 549.842 155.207Z" fill="white"/>
</mask>
<g mask="url(#mask3_2636_4730)">
<mask id="mask4_2636_4730" style="mask-type:luminance" maskUnits="userSpaceOnUse" x="335" y="497" width="174" height="341">
<path d="M481.454 497.663L335.43 810.39L427.661 837.191L508.367 505.337L469.782 578.497L486.344 517.585L457.835 583.977L481.454 497.663Z" fill="url(#paint1_linear_2636_4730)"/>
</mask>
<g mask="url(#mask4_2636_4730)">
<path d="M481.454 497.663L335.43 810.39L427.661 837.191L508.367 505.337L469.782 578.497L486.344 517.585L457.835 583.977L481.454 497.663Z" fill="url(#paint2_linear_2636_4730)"/>
</g>
<mask id="mask5_2636_4730" style="mask-type:luminance" maskUnits="userSpaceOnUse" x="-154" y="20" width="1515" height="1185">
<path d="M-118.56 20.8104L1360.36 65.5564L1325.91 1204.33L-153.014 1159.58L-118.56 20.8104Z" fill="white"/>
</mask>
<g mask="url(#mask5_2636_4730)">
<mask id="mask6_2636_4730" style="mask-type:luminance" maskUnits="userSpaceOnUse" x="-154" y="20" width="1515" height="1185">
<path d="M-118.56 20.8104L1360.36 65.5564L1325.91 1204.33L-153.014 1159.58L-118.56 20.8104Z" fill="white"/>
</mask>
<g mask="url(#mask6_2636_4730)">
<path d="M375.318 820.961C379.849 821.098 383.441 824.042 383.336 827.53C383.23 831.018 379.466 833.739 374.936 833.602C370.406 833.465 366.813 830.522 366.919 827.033C367.024 823.545 370.788 820.824 375.318 820.961Z" fill="#C27631"/>
</g>
<mask id="mask7_2636_4730" style="mask-type:luminance" maskUnits="userSpaceOnUse" x="-154" y="20" width="1515" height="1185">
<path d="M-118.56 20.8104L1360.36 65.5564L1325.91 1204.33L-153.014 1159.58L-118.56 20.8104Z" fill="white"/>
</mask>
<g mask="url(#mask7_2636_4730)">
<path d="M335.198 789.079C358.162 789.774 376.372 804.695 375.837 822.377C375.302 840.059 356.223 853.851 333.259 853.156C310.295 852.462 292.085 837.541 292.62 819.859C293.155 802.177 312.234 788.385 335.198 789.079Z" fill="#C27631"/>
</g>
<mask id="mask8_2636_4730" style="mask-type:luminance" maskUnits="userSpaceOnUse" x="-154" y="20" width="1515" height="1185">
<path d="M-118.56 20.8104L1360.36 65.5564L1325.91 1204.33L-153.014 1159.58L-118.56 20.8104Z" fill="white"/>
</mask>
<g mask="url(#mask8_2636_4730)">
<path d="M293.668 796.936C337.7 798.268 372.618 826.878 371.592 860.783C370.567 894.688 333.983 921.134 289.951 919.802C245.919 918.469 211.001 889.86 212.027 855.955C213.052 822.05 249.636 795.604 293.668 796.936Z" fill="#C27631"/>
</g>
<mask id="mask9_2636_4730" style="mask-type:luminance" maskUnits="userSpaceOnUse" x="-154" y="20" width="1515" height="1185">
<path d="M-118.56 20.8104L1360.36 65.5564L1325.91 1204.33L-153.014 1159.58L-118.56 20.8104Z" fill="white"/>
</mask>
<g mask="url(#mask9_2636_4730)">
<path d="M360.148 830.026C403.133 831.327 437.221 859.257 436.219 892.355C435.218 925.454 399.504 951.272 356.519 949.971C313.533 948.671 279.446 920.741 280.447 887.642C281.449 854.544 317.162 828.726 360.148 830.026Z" fill="#C27631"/>
</g>
<mask id="mask10_2636_4730" style="mask-type:luminance" maskUnits="userSpaceOnUse" x="-154" y="20" width="1515" height="1185">
<path d="M-118.56 20.8104L1360.36 65.5564L1325.91 1204.33L-153.014 1159.58L-118.56 20.8104Z" fill="white"/>
</mask>
<g mask="url(#mask10_2636_4730)">
<path d="M401.835 810.217C432.745 811.153 457.258 831.237 456.537 855.038C455.817 878.839 430.136 897.404 399.225 896.469C368.315 895.534 343.802 875.45 344.523 851.649C345.243 827.848 370.924 809.282 401.835 810.217Z" fill="#C27631"/>
</g>
</g>
<mask id="mask11_2636_4730" style="mask-type:luminance" maskUnits="userSpaceOnUse" x="-303" y="-227" width="1543" height="1536">
<path d="M1239.36 540.659L541.163 -226.352L-302.439 541.564L395.756 1308.57L1239.36 540.659Z" fill="white"/>
</mask>
<g mask="url(#mask11_2636_4730)">
<mask id="mask12_2636_4730" style="mask-type:luminance" maskUnits="userSpaceOnUse" x="-303" y="-227" width="1543" height="1536">
<path d="M1239.36 540.659L541.163 -226.352L-302.439 541.564L395.756 1308.57L1239.36 540.659Z" fill="white"/>
</mask>
<g mask="url(#mask12_2636_4730)">
<path d="M413.844 801.221C411.705 798.871 407.871 798.873 405.286 801.226C402.702 803.578 402.341 807.395 404.479 809.745C406.618 812.094 410.453 812.092 413.037 809.74C415.621 807.388 415.983 803.57 413.844 801.221Z" fill="#C27631"/>
</g>
<mask id="mask13_2636_4730" style="mask-type:luminance" maskUnits="userSpaceOnUse" x="-303" y="-227" width="1543" height="1536">
<path d="M1239.36 540.659L541.163 -226.352L-302.439 541.564L395.756 1308.57L1239.36 540.659Z" fill="white"/>
</mask>
<g mask="url(#mask13_2636_4730)">
<path d="M455.92 801.847C445.079 789.938 425.642 789.949 412.543 801.873C399.444 813.797 397.611 833.147 408.452 845.057C419.293 856.967 438.731 856.955 451.829 845.032C464.928 833.108 466.761 813.757 455.92 801.847Z" fill="#C27631"/>
</g>
<mask id="mask14_2636_4730" style="mask-type:luminance" maskUnits="userSpaceOnUse" x="-303" y="-227" width="1543" height="1536">
<path d="M1239.36 540.659L541.163 -226.352L-302.439 541.564L395.756 1308.57L1239.36 540.659Z" fill="white"/>
</mask>
<g mask="url(#mask14_2636_4730)">
<path d="M468.651 829.383C447.864 806.547 410.593 806.568 385.477 829.432C360.36 852.295 356.845 889.399 377.632 912.236C398.42 935.072 435.69 935.05 460.807 912.187C485.924 889.324 489.439 852.219 468.651 829.383Z" fill="#C27631"/>
</g>
<mask id="mask15_2636_4730" style="mask-type:luminance" maskUnits="userSpaceOnUse" x="-303" y="-227" width="1543" height="1536">
<path d="M1239.36 540.659L541.163 -226.352L-302.439 541.564L395.756 1308.57L1239.36 540.659Z" fill="white"/>
</mask>
<g mask="url(#mask15_2636_4730)">
<path d="M413.821 815.356C393.527 793.063 357.143 793.084 332.623 815.404C308.104 837.723 304.672 873.946 324.965 896.239C345.259 918.533 381.643 918.511 406.163 896.191C430.682 873.872 434.114 837.649 413.821 815.356Z" fill="#C27631"/>
</g>
<mask id="mask16_2636_4730" style="mask-type:luminance" maskUnits="userSpaceOnUse" x="-303" y="-227" width="1543" height="1536">
<path d="M1239.36 540.659L541.163 -226.352L-302.439 541.564L395.756 1308.57L1239.36 540.659Z" fill="white"/>
</mask>
<g mask="url(#mask16_2636_4730)">
<path d="M410.036 779.871C395.443 763.84 369.279 763.855 351.647 779.905C334.015 795.955 331.548 822.002 346.141 838.033C360.733 854.064 386.897 854.049 404.529 837.999C422.161 821.949 424.628 795.902 410.036 779.871Z" fill="#C27631"/>
</g>
</g>
</g>
</g>
</g>
<mask id="mask17_2636_4730" style="mask-type:luminance" maskUnits="userSpaceOnUse" x="-18" y="-22" width="1100" height="1101">
<path d="M1061.84 -21.8038L-17.9674 -1.65477L2.18158 1078.16L1081.99 1058.01L1061.84 -21.8038Z" fill="white"/>
</mask>
<g mask="url(#mask17_2636_4730)">
<g opacity="0.31">
<mask id="mask18_2636_4730" style="mask-type:luminance" maskUnits="userSpaceOnUse" x="155" y="154" width="771" height="770">
<path d="M533.518 154.32C746.037 150.354 921.533 319.419 925.499 531.938C929.464 744.457 760.398 919.953 547.879 923.919C335.36 927.884 159.865 758.818 155.9 546.299C151.934 333.78 320.999 158.285 533.518 154.32Z" fill="white"/>
</mask>
<g mask="url(#mask18_2636_4730)">
<mask id="mask19_2636_4730" style="mask-type:luminance" maskUnits="userSpaceOnUse" x="565" y="496" width="170" height="341">
<path d="M592.433 496.544L734.824 810.942L642.288 836.673L565.433 503.906L603.168 577.508L587.313 516.408L615.051 583.126L592.433 496.544Z" fill="url(#paint3_linear_2636_4730)"/>
</mask>
<g mask="url(#mask19_2636_4730)">
<path d="M592.433 496.544L734.824 810.942L642.288 836.673L565.433 503.906L603.168 577.508L587.313 516.408L615.051 583.126L592.433 496.544Z" fill="url(#paint4_linear_2636_4730)"/>
</g>
<mask id="mask20_2636_4730" style="mask-type:luminance" maskUnits="userSpaceOnUse" x="-282" y="26" width="1502" height="1168">
<path d="M1197.93 26.677L-281.409 54.2811L-260.154 1193.37L1219.19 1165.77L1197.93 26.677Z" fill="white"/>
</mask>
<g mask="url(#mask20_2636_4730)">
<mask id="mask21_2636_4730" style="mask-type:luminance" maskUnits="userSpaceOnUse" x="-282" y="26" width="1502" height="1168">
<path d="M1197.93 26.677L-281.409 54.2811L-260.154 1193.37L1219.19 1165.77L1197.93 26.677Z" fill="white"/>
</mask>
<g mask="url(#mask21_2636_4730)">
<path d="M694.815 821.051C690.284 821.135 686.657 824.037 686.722 827.526C686.788 831.015 690.52 833.78 695.051 833.695C699.583 833.611 703.209 830.709 703.144 827.22C703.079 823.73 699.347 820.966 694.815 821.051Z" fill="#C27631"/>
</g>
<mask id="mask22_2636_4730" style="mask-type:luminance" maskUnits="userSpaceOnUse" x="-282" y="26" width="1502" height="1168">
<path d="M1197.93 26.677L-281.409 54.2811L-260.154 1193.37L1219.19 1165.77L1197.93 26.677Z" fill="white"/>
</mask>
<g mask="url(#mask22_2636_4730)">
<path d="M735.303 789.636C712.332 790.064 693.95 804.773 694.28 822.46C694.61 840.147 713.528 854.16 736.499 853.731C759.469 853.302 777.851 838.594 777.521 820.907C777.191 803.22 758.273 789.207 735.303 789.636Z" fill="#C27631"/>
</g>
<mask id="mask23_2636_4730" style="mask-type:luminance" maskUnits="userSpaceOnUse" x="-282" y="26" width="1502" height="1168">
<path d="M1197.93 26.677L-281.409 54.2811L-260.154 1193.37L1219.19 1165.77L1197.93 26.677Z" fill="white"/>
</mask>
<g mask="url(#mask23_2636_4730)">
<path d="M776.738 797.973C732.694 798.795 697.447 826.998 698.08 860.913C698.712 894.827 734.987 921.696 779.032 920.874C823.076 920.052 858.323 891.849 857.69 857.934C857.058 824.02 820.783 797.152 776.738 797.973Z" fill="#C27631"/>
</g>
<mask id="mask24_2636_4730" style="mask-type:luminance" maskUnits="userSpaceOnUse" x="-282" y="26" width="1502" height="1168">
<path d="M1197.93 26.677L-281.409 54.2811L-260.154 1193.37L1219.19 1165.77L1197.93 26.677Z" fill="white"/>
</mask>
<g mask="url(#mask24_2636_4730)">
<path d="M709.88 830.291C666.882 831.093 632.473 858.626 633.091 891.734C633.709 924.842 669.121 951.072 712.119 950.27C755.116 949.467 789.525 921.935 788.907 888.827C788.29 855.719 752.877 829.489 709.88 830.291Z" fill="#C27631"/>
</g>
<mask id="mask25_2636_4730" style="mask-type:luminance" maskUnits="userSpaceOnUse" x="-282" y="26" width="1502" height="1168">
<path d="M1197.93 26.677L-281.409 54.2811L-260.154 1193.37L1219.19 1165.77L1197.93 26.677Z" fill="white"/>
</mask>
<g mask="url(#mask25_2636_4730)">
<path d="M668.425 810C637.506 810.577 612.763 830.376 613.207 854.184C613.651 877.992 639.116 896.853 670.035 896.276C700.954 895.699 725.698 875.901 725.253 852.093C724.809 828.285 699.344 809.423 668.425 810Z" fill="#C27631"/>
</g>
</g>
<mask id="mask26_2636_4730" style="mask-type:luminance" maskUnits="userSpaceOnUse" x="-166" y="-229" width="1542" height="1538">
<path d="M-165.919 530.754L541.119 -228.114L1375.77 549.526L668.728 1308.39L-165.919 530.754Z" fill="white"/>
</mask>
<g mask="url(#mask26_2636_4730)">
<mask id="mask27_2636_4730" style="mask-type:luminance" maskUnits="userSpaceOnUse" x="-166" y="-229" width="1542" height="1538">
<path d="M-165.919 530.754L541.119 -228.114L1375.77 549.526L668.728 1308.39L-165.919 530.754Z" fill="white"/>
</mask>
<g mask="url(#mask27_2636_4730)">
<path d="M656.521 800.865C658.687 798.54 662.521 798.587 665.078 800.969C667.635 803.351 667.952 807.173 665.786 809.497C663.621 811.822 659.786 811.775 657.23 809.393C654.673 807.011 654.356 803.189 656.521 800.865Z" fill="#C27631"/>
</g>
<mask id="mask28_2636_4730" style="mask-type:luminance" maskUnits="userSpaceOnUse" x="-166" y="-229" width="1542" height="1538">
<path d="M-165.919 530.754L541.119 -228.114L1375.77 549.526L668.728 1308.39L-165.919 530.754Z" fill="white"/>
</mask>
<g mask="url(#mask28_2636_4730)">
<path d="M614.44 801.004C625.419 789.221 644.855 789.458 657.815 801.532C670.774 813.607 672.383 832.978 661.405 844.761C650.426 856.544 630.99 856.307 618.031 844.233C605.071 832.158 603.462 812.787 614.44 801.004Z" fill="#C27631"/>
</g>
<mask id="mask29_2636_4730" style="mask-type:luminance" maskUnits="userSpaceOnUse" x="-166" y="-229" width="1542" height="1538">
<path d="M-165.919 530.754L541.119 -228.114L1375.77 549.526L668.728 1308.39L-165.919 530.754Z" fill="white"/>
</mask>
<g mask="url(#mask29_2636_4730)">
<path d="M601.391 828.39C622.442 805.796 659.71 806.25 684.56 829.403C709.41 852.556 712.495 889.698 691.444 912.292C670.393 934.886 633.125 934.432 608.275 911.279C583.425 888.127 580.34 850.984 601.391 828.39Z" fill="#C27631"/>
</g>
<mask id="mask30_2636_4730" style="mask-type:luminance" maskUnits="userSpaceOnUse" x="-166" y="-229" width="1542" height="1538">
<path d="M-165.919 530.754L541.119 -228.114L1375.77 549.526L668.728 1308.39L-165.919 530.754Z" fill="white"/>
</mask>
<g mask="url(#mask30_2636_4730)">
<path d="M656.381 815C676.931 792.943 713.313 793.386 737.572 815.988C761.831 838.591 764.843 874.85 744.292 896.907C723.742 918.964 687.36 918.521 663.101 895.918C638.842 873.316 635.83 837.056 656.381 815Z" fill="#C27631"/>
</g>
<mask id="mask31_2636_4730" style="mask-type:luminance" maskUnits="userSpaceOnUse" x="-166" y="-229" width="1542" height="1538">
<path d="M-165.919 530.754L541.119 -228.114L1375.77 549.526L668.728 1308.39L-165.919 530.754Z" fill="white"/>
</mask>
<g mask="url(#mask31_2636_4730)">
<path d="M660.577 779.561C675.354 763.7 701.516 764.018 718.961 780.271C736.406 796.525 738.571 822.599 723.793 838.46C709.016 854.321 682.854 854.002 665.409 837.749C647.965 821.496 645.799 795.421 660.577 779.561Z" fill="#C27631"/>
</g>
</g>
</g>
</g>
</g>
<mask id="mask32_2636_4730" style="mask-type:luminance" maskUnits="userSpaceOnUse" x="-56" y="-74" width="1188" height="1188">
<path d="M57.1997 -73.4872L1131.28 39.4036L1018.39 1113.49L-55.691 1000.6L57.1997 -73.4872Z" fill="white"/>
</mask>
<g mask="url(#mask32_2636_4730)">
<mask id="mask33_2636_4730" style="mask-type:luminance" maskUnits="userSpaceOnUse" x="311" y="483" width="196" height="335">
<path d="M480.318 483.291L311.431 784.286L401.412 817.876L506.586 492.946L462.664 563.032L483.712 503.521L450.342 567.608L480.318 483.291Z" fill="url(#paint5_linear_2636_4730)"/>
</mask>
<g mask="url(#mask33_2636_4730)">
<path d="M480.318 483.291L311.431 784.286L401.412 817.876L506.586 492.946L462.664 563.032L483.712 503.521L450.342 567.608L480.318 483.291Z" fill="url(#paint6_linear_2636_4730)"/>
</g>
<mask id="mask34_2636_4730" style="mask-type:luminance" maskUnits="userSpaceOnUse" x="-202" y="-37" width="1591" height="1288">
<path d="M-82.552 -36.883L1388.94 117.777L1269.85 1250.83L-201.64 1096.17L-82.552 -36.883Z" fill="white"/>
</mask>
<g mask="url(#mask34_2636_4730)">
<mask id="mask35_2636_4730" style="mask-type:luminance" maskUnits="userSpaceOnUse" x="-202" y="-37" width="1591" height="1288">
<path d="M-82.552 -36.883L1388.94 117.777L1269.85 1250.83L-201.64 1096.17L-82.552 -36.883Z" fill="white"/>
</mask>
<g mask="url(#mask35_2636_4730)">
<path d="M344.836 794.789C349.708 795.301 353.342 798.762 352.948 802.513C352.554 806.263 348.279 808.893 343.408 808.381C338.537 807.869 334.902 804.408 335.296 800.657C335.69 796.907 339.965 794.277 344.836 794.789Z" fill="#ECECEC"/>
</g>
<mask id="mask36_2636_4730" style="mask-type:luminance" maskUnits="userSpaceOnUse" x="-202" y="-37" width="1591" height="1288">
<path d="M-82.552 -36.883L1388.94 117.777L1269.85 1250.83L-201.64 1096.17L-82.552 -36.883Z" fill="white"/>
</mask>
<g mask="url(#mask36_2636_4730)">
<path d="M304.818 754.312C339.303 757.936 365.036 782.438 362.245 808.991C359.455 835.545 329.19 854.161 294.705 850.537C260.22 846.912 234.487 822.41 237.278 795.857C240.069 769.304 270.334 750.687 304.818 754.312Z" fill="#ECECEC"/>
</g>
<mask id="mask37_2636_4730" style="mask-type:luminance" maskUnits="userSpaceOnUse" x="-202" y="-37" width="1591" height="1288">
<path d="M-82.552 -36.883L1388.94 117.777L1269.85 1250.83L-201.64 1096.17L-82.552 -36.883Z" fill="white"/>
</mask>
<g mask="url(#mask37_2636_4730)">
<path d="M301.821 783.991C347.365 788.778 381.35 821.138 377.664 856.206C373.978 891.275 334.008 915.861 288.464 911.074C242.92 906.288 208.935 873.928 212.621 838.86C216.307 803.791 256.277 779.205 301.821 783.991Z" fill="#ECECEC"/>
</g>
<mask id="mask38_2636_4730" style="mask-type:luminance" maskUnits="userSpaceOnUse" x="-202" y="-37" width="1591" height="1288">
<path d="M-82.552 -36.883L1388.94 117.777L1269.85 1250.83L-201.64 1096.17L-82.552 -36.883Z" fill="white"/>
</mask>
<g mask="url(#mask38_2636_4730)">
<path d="M363.274 795.306C401.804 799.355 430.556 826.732 427.438 856.4C424.319 886.068 390.504 906.869 351.974 902.819C313.443 898.769 284.692 871.393 287.81 841.725C290.928 812.056 324.744 791.256 363.274 795.306Z" fill="#ECECEC"/>
</g>
<mask id="mask39_2636_4730" style="mask-type:luminance" maskUnits="userSpaceOnUse" x="-202" y="-37" width="1591" height="1288">
<path d="M-82.552 -36.883L1388.94 117.777L1269.85 1250.83L-201.64 1096.17L-82.552 -36.883Z" fill="white"/>
</mask>
<g mask="url(#mask39_2636_4730)">
<path d="M381.737 786.725C408.862 789.576 429.103 808.849 426.908 829.735C424.712 850.621 400.907 865.264 373.782 862.413C346.658 859.562 326.417 840.289 328.612 819.403C330.807 798.517 354.613 783.874 381.737 786.725Z" fill="#ECECEC"/>
</g>
</g>
<mask id="mask40_2636_4730" style="mask-type:luminance" maskUnits="userSpaceOnUse" x="-305" y="-235" width="1538" height="1521">
<path d="M1232.92 582.559L593.732 -234.275L-304.669 468.744L334.522 1285.58L1232.92 582.559Z" fill="white"/>
</mask>
<g mask="url(#mask40_2636_4730)">
<mask id="mask41_2636_4730" style="mask-type:luminance" maskUnits="userSpaceOnUse" x="-305" y="-235" width="1538" height="1521">
<path d="M1232.92 582.559L593.732 -234.275L-304.669 468.744L334.522 1285.58L1232.92 582.559Z" fill="white"/>
</mask>
<g mask="url(#mask41_2636_4730)">
<path d="M394.743 782.732C392.627 780.028 388.495 779.722 385.521 782.049C382.547 784.376 381.85 788.461 383.966 791.165C386.082 793.869 390.215 794.175 393.189 791.848C396.163 789.521 396.859 785.436 394.743 782.732Z" fill="#ECECEC"/>
</g>
<mask id="mask42_2636_4730" style="mask-type:luminance" maskUnits="userSpaceOnUse" x="-305" y="-235" width="1538" height="1521">
<path d="M1232.92 582.559L593.732 -234.275L-304.669 468.744L334.522 1285.58L1232.92 582.559Z" fill="white"/>
</mask>
<g mask="url(#mask42_2636_4730)">
<path d="M442.21 784.78C427.23 765.637 397.973 763.472 376.919 779.947C355.865 796.422 350.933 825.342 365.912 844.484C380.892 863.627 410.149 865.793 431.203 849.317C452.257 832.842 457.189 803.923 442.21 784.78Z" fill="#ECECEC"/>
</g>
<mask id="mask43_2636_4730" style="mask-type:luminance" maskUnits="userSpaceOnUse" x="-305" y="-235" width="1538" height="1521">
<path d="M1232.92 582.559L593.732 -234.275L-304.669 468.744L334.522 1285.58L1232.92 582.559Z" fill="white"/>
</mask>
<g mask="url(#mask43_2636_4730)">
<path d="M418.634 803.12C398.851 777.839 360.212 774.979 332.406 796.738C304.6 818.496 298.086 856.689 317.869 881.971C337.653 907.252 376.291 910.113 404.098 888.354C431.904 866.595 438.417 828.402 418.634 803.12Z" fill="#ECECEC"/>
</g>
<mask id="mask44_2636_4730" style="mask-type:luminance" maskUnits="userSpaceOnUse" x="-305" y="-235" width="1538" height="1521">
<path d="M1232.92 582.559L593.732 -234.275L-304.669 468.744L334.522 1285.58L1232.92 582.559Z" fill="white"/>
</mask>
<g mask="url(#mask44_2636_4730)">
<path d="M387.913 771.707C371.176 750.319 338.487 747.899 314.963 766.307C291.439 784.715 285.928 817.027 302.665 838.415C319.402 859.804 352.091 862.223 375.615 843.815C399.139 825.407 404.65 793.095 387.913 771.707Z" fill="#ECECEC"/>
</g>
<mask id="mask45_2636_4730" style="mask-type:luminance" maskUnits="userSpaceOnUse" x="-305" y="-235" width="1538" height="1521">
<path d="M1232.92 582.559L593.732 -234.275L-304.669 468.744L334.522 1285.58L1232.92 582.559Z" fill="white"/>
</mask>
<g mask="url(#mask45_2636_4730)">
<path d="M388.619 755.608C376.837 740.551 353.824 738.848 337.264 751.807C320.703 764.766 316.824 787.513 328.606 802.57C340.389 817.627 363.401 819.33 379.961 806.371C396.522 793.412 400.401 770.665 388.619 755.608Z" fill="#ECECEC"/>
</g>
</g>
<mask id="mask46_2636_4730" style="mask-type:alpha" maskUnits="userSpaceOnUse" x="229" y="439" width="363" height="409">
<mask id="mask47_2636_4730" style="mask-type:luminance" maskUnits="userSpaceOnUse" x="229" y="439" width="363" height="409">
<path d="M591.224 549.136L418.865 847.719L229.079 738.164L401.438 439.581L591.224 549.136Z" fill="url(#paint7_linear_2636_4730)"/>
</mask>
<g mask="url(#mask47_2636_4730)">
<path d="M591.224 549.136L418.865 847.719L229.079 738.164L401.438 439.581L591.224 549.136Z" fill="url(#paint8_linear_2636_4730)"/>
</g>
</mask>
<g mask="url(#mask46_2636_4730)">
<mask id="mask48_2636_4730" style="mask-type:luminance" maskUnits="userSpaceOnUse" x="-56" y="-74" width="1188" height="1188">
<path d="M57.1995 -73.4872L1131.28 39.4035L1018.39 1113.49L-55.6913 1000.6L57.1995 -73.4872Z" fill="white"/>
</mask>
<g mask="url(#mask48_2636_4730)">
<g opacity="0.2">
<path d="M386.507 736.775C374.699 763.664 366.416 782.524 366.416 782.524M466.877 553.772C466.877 553.772 458.642 572.524 446.887 599.291" stroke="black" stroke-width="5" stroke-linecap="round"/>
<path d="M423.747 611.126C411.398 635.444 388.357 680.82 370.377 716.23" stroke="black" stroke-width="5" stroke-linecap="round"/>
<path d="M483.768 544.232C471.34 578.76 448.15 643.187 430.054 693.463" stroke="black" stroke-width="5"/>
</g>
</g>
</g>
</g>
<mask id="mask49_2636_4730" style="mask-type:alpha" maskUnits="userSpaceOnUse" x="212" y="483" width="295" height="429">
<mask id="mask50_2636_4730" style="mask-type:luminance" maskUnits="userSpaceOnUse" x="-56" y="-74" width="1188" height="1188">
<path d="M57.1995 -73.4872L1131.28 39.4036L1018.39 1113.49L-55.6913 1000.6L57.1995 -73.4872Z" fill="white"/>
</mask>
<g mask="url(#mask50_2636_4730)">
<mask id="mask51_2636_4730" style="mask-type:luminance" maskUnits="userSpaceOnUse" x="311" y="483" width="196" height="335">
<path d="M480.318 483.291L311.43 784.286L401.412 817.876L506.586 492.946L462.664 563.032L483.712 503.521L450.342 567.608L480.318 483.291Z" fill="url(#paint9_linear_2636_4730)"/>
</mask>
<g mask="url(#mask51_2636_4730)">
<path d="M480.318 483.291L311.43 784.286L401.412 817.876L506.586 492.946L462.664 563.032L483.712 503.521L450.342 567.608L480.318 483.291Z" fill="url(#paint10_linear_2636_4730)"/>
</g>
<mask id="mask52_2636_4730" style="mask-type:luminance" maskUnits="userSpaceOnUse" x="-202" y="-37" width="1591" height="1288">
<path d="M-82.5522 -36.883L1388.94 117.777L1269.85 1250.83L-201.641 1096.17L-82.5522 -36.883Z" fill="white"/>
</mask>
<g mask="url(#mask52_2636_4730)">
<mask id="mask53_2636_4730" style="mask-type:luminance" maskUnits="userSpaceOnUse" x="-202" y="-37" width="1591" height="1288">
<path d="M-82.5522 -36.883L1388.94 117.777L1269.85 1250.83L-201.641 1096.17L-82.5522 -36.883Z" fill="white"/>
</mask>
<g mask="url(#mask53_2636_4730)">
<path d="M344.836 794.789C349.707 795.301 353.342 798.762 352.948 802.513C352.554 806.263 348.279 808.893 343.408 808.381C338.537 807.869 334.902 804.408 335.296 800.657C335.69 796.907 339.965 794.277 344.836 794.789Z" fill="#ECECEC"/>
</g>
<mask id="mask54_2636_4730" style="mask-type:luminance" maskUnits="userSpaceOnUse" x="-202" y="-37" width="1591" height="1288">
<path d="M-82.5522 -36.883L1388.94 117.777L1269.85 1250.83L-201.641 1096.17L-82.5522 -36.883Z" fill="white"/>
</mask>
<g mask="url(#mask54_2636_4730)">
<path d="M304.818 754.312C339.303 757.936 365.036 782.438 362.245 808.991C359.454 835.545 329.189 854.161 294.705 850.537C260.22 846.912 234.487 822.41 237.278 795.857C240.068 769.304 270.333 750.687 304.818 754.312Z" fill="#ECECEC"/>
</g>
<mask id="mask55_2636_4730" style="mask-type:luminance" maskUnits="userSpaceOnUse" x="-202" y="-37" width="1591" height="1288">
<path d="M-82.5522 -36.883L1388.94 117.777L1269.85 1250.83L-201.641 1096.17L-82.5522 -36.883Z" fill="white"/>
</mask>
<g mask="url(#mask55_2636_4730)">
<path d="M301.821 783.991C347.364 788.778 381.35 821.138 377.664 856.206C373.978 891.275 334.007 915.861 288.464 911.074C242.92 906.288 208.935 873.928 212.621 838.86C216.307 803.791 256.277 779.205 301.821 783.991Z" fill="#ECECEC"/>
</g>
<mask id="mask56_2636_4730" style="mask-type:luminance" maskUnits="userSpaceOnUse" x="-202" y="-37" width="1591" height="1288">
<path d="M-82.5522 -36.883L1388.94 117.777L1269.85 1250.83L-201.641 1096.17L-82.5522 -36.883Z" fill="white"/>
</mask>
<g mask="url(#mask56_2636_4730)">
<path d="M363.274 795.306C401.804 799.355 430.556 826.732 427.437 856.4C424.319 886.068 390.504 906.869 351.973 902.819C313.443 898.769 284.691 871.393 287.81 841.725C290.928 812.056 324.743 791.256 363.274 795.306Z" fill="#ECECEC"/>
</g>
<mask id="mask57_2636_4730" style="mask-type:luminance" maskUnits="userSpaceOnUse" x="-202" y="-37" width="1591" height="1288">
<path d="M-82.5522 -36.883L1388.94 117.777L1269.85 1250.83L-201.641 1096.17L-82.5522 -36.883Z" fill="white"/>
</mask>
<g mask="url(#mask57_2636_4730)">
<path d="M381.737 786.725C408.862 789.576 429.102 808.849 426.907 829.735C424.712 850.621 400.907 865.264 373.782 862.413C346.657 859.562 326.417 840.289 328.612 819.403C330.807 798.517 354.612 783.874 381.737 786.725Z" fill="#ECECEC"/>
</g>
</g>
<mask id="mask58_2636_4730" style="mask-type:luminance" maskUnits="userSpaceOnUse" x="-305" y="-235" width="1538" height="1521">
<path d="M1232.92 582.559L593.731 -234.275L-304.669 468.744L334.522 1285.58L1232.92 582.559Z" fill="white"/>
</mask>
<g mask="url(#mask58_2636_4730)">
<mask id="mask59_2636_4730" style="mask-type:luminance" maskUnits="userSpaceOnUse" x="-305" y="-235" width="1538" height="1521">
<path d="M1232.92 582.559L593.731 -234.275L-304.669 468.744L334.522 1285.58L1232.92 582.559Z" fill="white"/>
</mask>
<g mask="url(#mask59_2636_4730)">
<path d="M394.743 782.732C392.627 780.028 388.494 779.722 385.52 782.049C382.547 784.376 381.85 788.461 383.966 791.165C386.082 793.869 390.214 794.175 393.188 791.848C396.162 789.521 396.859 785.436 394.743 782.732Z" fill="#ECECEC"/>
</g>
<mask id="mask60_2636_4730" style="mask-type:luminance" maskUnits="userSpaceOnUse" x="-305" y="-235" width="1538" height="1521">
<path d="M1232.92 582.559L593.731 -234.275L-304.669 468.744L334.522 1285.58L1232.92 582.559Z" fill="white"/>
</mask>
<g mask="url(#mask60_2636_4730)">
<path d="M442.209 784.78C427.23 765.637 397.973 763.472 376.919 779.947C355.865 796.422 350.932 825.342 365.912 844.484C380.892 863.627 410.148 865.793 431.203 849.317C452.257 832.842 457.189 803.923 442.209 784.78Z" fill="#ECECEC"/>
</g>
<mask id="mask61_2636_4730" style="mask-type:luminance" maskUnits="userSpaceOnUse" x="-305" y="-235" width="1538" height="1521">
<path d="M1232.92 582.559L593.731 -234.275L-304.669 468.744L334.522 1285.58L1232.92 582.559Z" fill="white"/>
</mask>
<g mask="url(#mask61_2636_4730)">
<path d="M418.634 803.12C398.85 777.839 360.212 774.979 332.406 796.738C304.599 818.496 298.086 856.689 317.869 881.971C337.652 907.252 376.291 910.113 404.097 888.354C431.903 866.595 438.417 828.402 418.634 803.12Z" fill="#ECECEC"/>
</g>
<mask id="mask62_2636_4730" style="mask-type:luminance" maskUnits="userSpaceOnUse" x="-305" y="-235" width="1538" height="1521">
<path d="M1232.92 582.559L593.731 -234.275L-304.669 468.744L334.522 1285.58L1232.92 582.559Z" fill="white"/>
</mask>
<g mask="url(#mask62_2636_4730)">
<path d="M387.913 771.707C371.176 750.319 338.487 747.899 314.963 766.307C291.439 784.715 285.928 817.027 302.665 838.415C319.402 859.804 352.091 862.223 375.615 843.815C399.139 825.407 404.65 793.095 387.913 771.707Z" fill="#ECECEC"/>
</g>
<mask id="mask63_2636_4730" style="mask-type:luminance" maskUnits="userSpaceOnUse" x="-305" y="-235" width="1538" height="1521">
<path d="M1232.92 582.559L593.731 -234.275L-304.669 468.744L334.522 1285.58L1232.92 582.559Z" fill="white"/>
</mask>
<g mask="url(#mask63_2636_4730)">
<path d="M388.619 755.608C376.836 740.551 353.824 738.848 337.263 751.807C320.703 764.766 316.823 787.513 328.606 802.57C340.388 817.627 363.401 819.33 379.961 806.371C396.522 793.412 400.401 770.665 388.619 755.608Z" fill="#ECECEC"/>
</g>
</g>
<mask id="mask64_2636_4730" style="mask-type:alpha" maskUnits="userSpaceOnUse" x="229" y="439" width="363" height="409">
<mask id="mask65_2636_4730" style="mask-type:luminance" maskUnits="userSpaceOnUse" x="229" y="439" width="363" height="409">
<path d="M591.224 549.136L418.865 847.719L229.079 738.164L401.438 439.581L591.224 549.136Z" fill="url(#paint11_linear_2636_4730)"/>
</mask>
<g mask="url(#mask65_2636_4730)">
<path d="M591.224 549.136L418.865 847.719L229.079 738.164L401.438 439.581L591.224 549.136Z" fill="url(#paint12_linear_2636_4730)"/>
</g>
</mask>
<g mask="url(#mask64_2636_4730)">
<mask id="mask66_2636_4730" style="mask-type:luminance" maskUnits="userSpaceOnUse" x="-56" y="-74" width="1188" height="1188">
<path d="M57.1992 -73.4872L1131.28 39.4035L1018.39 1113.49L-55.6915 1000.6L57.1992 -73.4872Z" fill="white"/>
</mask>
<g mask="url(#mask66_2636_4730)">
<g opacity="0.2">
<path d="M386.507 736.775C374.698 763.664 366.416 782.524 366.416 782.524M466.877 553.772C466.877 553.772 458.642 572.524 446.886 599.291" stroke="black" stroke-width="5" stroke-linecap="round"/>
<path d="M423.747 611.126C411.398 635.444 388.357 680.82 370.377 716.23" stroke="black" stroke-width="5" stroke-linecap="round"/>
<path d="M483.768 544.232C471.339 578.76 448.15 643.187 430.054 693.463" stroke="black" stroke-width="5"/>
</g>
</g>
</g>
</g>
</mask>
<g mask="url(#mask49_2636_4730)">
<g opacity="0.32">
<mask id="mask67_2636_4730" style="mask-type:luminance" maskUnits="userSpaceOnUse" x="173" y="718" width="241" height="219">
<path d="M400.795 788.808C365.461 730.229 225.449 676.408 182.818 765.012C161.402 809.524 172.237 887.363 249.904 919.361C405.282 983.374 436.129 847.387 400.795 788.808Z" fill="url(#paint13_linear_2636_4730)"/>
</mask>
<g mask="url(#mask67_2636_4730)">
<path d="M400.795 788.808C365.461 730.229 225.449 676.408 182.818 765.012C161.402 809.524 172.237 887.363 249.904 919.361C405.282 983.374 436.129 847.387 400.795 788.808Z" fill="url(#paint14_linear_2636_4730)"/>
</g>
</g>
</g>
<mask id="mask68_2636_4730" style="mask-type:luminance" maskUnits="userSpaceOnUse" x="-56" y="-74" width="1188" height="1188">
<path d="M1018.39 -73.4872L-55.6912 39.4036L57.1995 1113.49L1131.28 1000.6L1018.39 -73.4872Z" fill="white"/>
</mask>
<g mask="url(#mask68_2636_4730)">
<mask id="mask69_2636_4730" style="mask-type:luminance" maskUnits="userSpaceOnUse" x="569" y="483" width="196" height="335">
<path d="M595.274 483.291L764.162 784.286L674.18 817.876L569.006 492.946L612.928 563.032L591.88 503.521L625.25 567.608L595.274 483.291Z" fill="url(#paint15_linear_2636_4730)"/>
</mask>
<g mask="url(#mask69_2636_4730)">
<path d="M595.274 483.291L764.162 784.286L674.18 817.876L569.006 492.946L612.928 563.032L591.88 503.521L625.25 567.608L595.274 483.291Z" fill="url(#paint16_linear_2636_4730)"/>
</g>
<mask id="mask70_2636_4730" style="mask-type:luminance" maskUnits="userSpaceOnUse" x="-314" y="-37" width="1592" height="1288">
<path d="M1158.14 -36.883L-313.351 117.777L-194.262 1250.83L1277.23 1096.17L1158.14 -36.883Z" fill="white"/>
</mask>
<g mask="url(#mask70_2636_4730)">
<mask id="mask71_2636_4730" style="mask-type:luminance" maskUnits="userSpaceOnUse" x="-314" y="-37" width="1592" height="1288">
<path d="M1158.14 -36.883L-313.351 117.777L-194.262 1250.83L1277.23 1096.17L1158.14 -36.883Z" fill="white"/>
</mask>
<g mask="url(#mask71_2636_4730)">
<path d="M730.756 794.789C725.884 795.301 722.25 798.762 722.644 802.513C723.038 806.263 727.313 808.893 732.184 808.381C737.055 807.869 740.69 804.408 740.296 800.657C739.902 796.907 735.627 794.277 730.756 794.789Z" fill="#ECECEC"/>
</g>
<mask id="mask72_2636_4730" style="mask-type:luminance" maskUnits="userSpaceOnUse" x="-314" y="-37" width="1592" height="1288">
<path d="M1158.14 -36.883L-313.351 117.777L-194.262 1250.83L1277.23 1096.17L1158.14 -36.883Z" fill="white"/>
</mask>
<g mask="url(#mask72_2636_4730)">
<path d="M770.774 754.312C736.289 757.936 710.556 782.438 713.347 808.991C716.138 835.545 746.402 854.161 780.887 850.537C815.372 846.912 841.105 822.41 838.314 795.857C835.523 769.304 805.258 750.687 770.774 754.312Z" fill="#ECECEC"/>
</g>
<mask id="mask73_2636_4730" style="mask-type:luminance" maskUnits="userSpaceOnUse" x="-314" y="-37" width="1592" height="1288">
<path d="M1158.14 -36.883L-313.351 117.777L-194.262 1250.83L1277.23 1096.17L1158.14 -36.883Z" fill="white"/>
</mask>
<g mask="url(#mask73_2636_4730)">
<path d="M773.771 783.991C728.228 788.778 694.242 821.138 697.928 856.206C701.614 891.275 741.584 915.861 787.128 911.074C832.672 906.288 866.657 873.928 862.971 838.86C859.285 803.791 819.315 779.205 773.771 783.991Z" fill="#ECECEC"/>
</g>
<mask id="mask74_2636_4730" style="mask-type:luminance" maskUnits="userSpaceOnUse" x="-314" y="-37" width="1592" height="1288">
<path d="M1158.14 -36.883L-313.351 117.777L-194.262 1250.83L1277.23 1096.17L1158.14 -36.883Z" fill="white"/>
</mask>
<g mask="url(#mask74_2636_4730)">
<path d="M712.318 795.306C673.788 799.355 645.036 826.732 648.154 856.4C651.273 886.068 685.088 906.869 723.618 902.819C762.149 898.769 790.9 871.393 787.782 841.725C784.664 812.056 750.848 791.256 712.318 795.306Z" fill="#ECECEC"/>
</g>
<mask id="mask75_2636_4730" style="mask-type:luminance" maskUnits="userSpaceOnUse" x="-314" y="-37" width="1592" height="1288">
<path d="M1158.14 -36.883L-313.351 117.777L-194.262 1250.83L1277.23 1096.17L1158.14 -36.883Z" fill="white"/>
</mask>
<g mask="url(#mask75_2636_4730)">
<path d="M693.855 786.725C666.73 789.576 646.489 808.849 648.685 829.735C650.88 850.621 674.685 865.264 701.81 862.413C728.934 859.562 749.175 840.289 746.98 819.403C744.785 798.517 720.979 783.874 693.855 786.725Z" fill="#ECECEC"/>
</g>
</g>
<mask id="mask76_2636_4730" style="mask-type:luminance" maskUnits="userSpaceOnUse" x="-158" y="-235" width="1539" height="1521">
<path d="M-157.331 582.559L481.86 -234.275L1380.26 468.744L741.07 1285.58L-157.331 582.559Z" fill="white"/>
</mask>
<g mask="url(#mask76_2636_4730)">
<mask id="mask77_2636_4730" style="mask-type:luminance" maskUnits="userSpaceOnUse" x="-158" y="-235" width="1539" height="1521">
<path d="M-157.331 582.559L481.86 -234.275L1380.26 468.744L741.07 1285.58L-157.331 582.559Z" fill="white"/>
</mask>
<g mask="url(#mask77_2636_4730)">
<path d="M680.849 782.732C682.965 780.028 687.097 779.722 690.071 782.049C693.045 784.376 693.742 788.461 691.626 791.165C689.51 793.869 685.378 794.175 682.404 791.848C679.43 789.521 678.733 785.436 680.849 782.732Z" fill="#ECECEC"/>
</g>
<mask id="mask78_2636_4730" style="mask-type:luminance" maskUnits="userSpaceOnUse" x="-158" y="-235" width="1539" height="1521">
<path d="M-157.331 582.559L481.86 -234.275L1380.26 468.744L741.07 1285.58L-157.331 582.559Z" fill="white"/>
</mask>
<g mask="url(#mask78_2636_4730)">
<path d="M633.382 784.78C648.362 765.637 677.619 763.472 698.673 779.947C719.727 796.422 724.659 825.342 709.68 844.484C694.7 863.627 665.443 865.793 644.389 849.317C623.335 832.842 618.403 803.923 633.382 784.78Z" fill="#ECECEC"/>
</g>
<mask id="mask79_2636_4730" style="mask-type:luminance" maskUnits="userSpaceOnUse" x="-158" y="-235" width="1539" height="1521">
<path d="M-157.331 582.559L481.86 -234.275L1380.26 468.744L741.07 1285.58L-157.331 582.559Z" fill="white"/>
</mask>
<g mask="url(#mask79_2636_4730)">
<path d="M656.958 803.12C676.741 777.839 715.38 774.979 743.186 796.738C770.992 818.496 777.506 856.689 757.723 881.971C737.939 907.252 699.301 910.113 671.495 888.354C643.689 866.595 637.175 828.402 656.958 803.12Z" fill="#ECECEC"/>
</g>
<mask id="mask80_2636_4730" style="mask-type:luminance" maskUnits="userSpaceOnUse" x="-158" y="-235" width="1539" height="1521">
<path d="M-157.331 582.559L481.86 -234.275L1380.26 468.744L741.07 1285.58L-157.331 582.559Z" fill="white"/>
</mask>
<g mask="url(#mask80_2636_4730)">
<path d="M687.679 771.707C704.416 750.319 737.105 747.899 760.629 766.307C784.153 784.715 789.664 817.027 772.927 838.415C756.19 859.804 723.501 862.223 699.977 843.815C676.453 825.407 670.942 793.095 687.679 771.707Z" fill="#ECECEC"/>
</g>
<mask id="mask81_2636_4730" style="mask-type:luminance" maskUnits="userSpaceOnUse" x="-158" y="-235" width="1539" height="1521">
<path d="M-157.331 582.559L481.86 -234.275L1380.26 468.744L741.07 1285.58L-157.331 582.559Z" fill="white"/>
</mask>
<g mask="url(#mask81_2636_4730)">
<path d="M686.973 755.608C698.756 740.551 721.768 738.848 738.328 751.807C754.889 764.766 758.768 787.513 746.986 802.57C735.204 817.627 712.191 819.33 695.631 806.371C679.07 793.412 675.191 770.665 686.973 755.608Z" fill="#ECECEC"/>
</g>
</g>
<mask id="mask82_2636_4730" style="mask-type:alpha" maskUnits="userSpaceOnUse" x="484" y="439" width="363" height="409">
<mask id="mask83_2636_4730" style="mask-type:luminance" maskUnits="userSpaceOnUse" x="484" y="439" width="363" height="409">
<path d="M484.368 549.136L656.727 847.719L846.513 738.164L674.154 439.581L484.368 549.136Z" fill="url(#paint17_linear_2636_4730)"/>
</mask>
<g mask="url(#mask83_2636_4730)">
<path d="M484.368 549.136L656.727 847.719L846.513 738.164L674.154 439.581L484.368 549.136Z" fill="url(#paint18_linear_2636_4730)"/>
</g>
</mask>
<g mask="url(#mask82_2636_4730)">
<mask id="mask84_2636_4730" style="mask-type:luminance" maskUnits="userSpaceOnUse" x="-56" y="-74" width="1188" height="1188">
<path d="M1018.39 -73.4872L-55.6911 39.4035L57.1997 1113.49L1131.28 1000.6L1018.39 -73.4872Z" fill="white"/>
</mask>
<g mask="url(#mask84_2636_4730)">
<g opacity="0.2">
<path d="M689.085 736.775C700.893 763.664 709.176 782.524 709.176 782.524M608.715 553.772C608.715 553.772 616.95 572.524 628.705 599.291" stroke="black" stroke-width="5" stroke-linecap="round"/>
<path d="M651.845 611.126C664.194 635.444 687.235 680.82 705.215 716.23" stroke="black" stroke-width="5" stroke-linecap="round"/>
<path d="M591.824 544.232C604.252 578.76 627.442 643.187 645.538 693.463" stroke="black" stroke-width="5"/>
</g>
</g>
</g>
</g>
<mask id="mask85_2636_4730" style="mask-type:alpha" maskUnits="userSpaceOnUse" x="569" y="483" width="295" height="429">
<mask id="mask86_2636_4730" style="mask-type:luminance" maskUnits="userSpaceOnUse" x="-56" y="-74" width="1188" height="1188">
<path d="M1018.39 -73.4872L-55.6912 39.4036L57.1995 1113.49L1131.28 1000.6L1018.39 -73.4872Z" fill="white"/>
</mask>
<g mask="url(#mask86_2636_4730)">
<mask id="mask87_2636_4730" style="mask-type:luminance" maskUnits="userSpaceOnUse" x="569" y="483" width="196" height="335">
<path d="M595.274 483.291L764.162 784.286L674.18 817.876L569.006 492.946L612.928 563.032L591.88 503.521L625.25 567.608L595.274 483.291Z" fill="url(#paint19_linear_2636_4730)"/>
</mask>
<g mask="url(#mask87_2636_4730)">
<path d="M595.274 483.291L764.162 784.286L674.18 817.876L569.006 492.946L612.928 563.032L591.88 503.521L625.25 567.608L595.274 483.291Z" fill="url(#paint20_linear_2636_4730)"/>
</g>
<mask id="mask88_2636_4730" style="mask-type:luminance" maskUnits="userSpaceOnUse" x="-314" y="-37" width="1592" height="1288">
<path d="M1158.14 -36.883L-313.351 117.777L-194.262 1250.83L1277.23 1096.17L1158.14 -36.883Z" fill="white"/>
</mask>
<g mask="url(#mask88_2636_4730)">
<mask id="mask89_2636_4730" style="mask-type:luminance" maskUnits="userSpaceOnUse" x="-314" y="-37" width="1592" height="1288">
<path d="M1158.14 -36.883L-313.351 117.777L-194.262 1250.83L1277.23 1096.17L1158.14 -36.883Z" fill="white"/>
</mask>
<g mask="url(#mask89_2636_4730)">
<path d="M730.756 794.789C725.884 795.301 722.25 798.762 722.644 802.513C723.038 806.263 727.313 808.893 732.184 808.381C737.055 807.869 740.69 804.408 740.296 800.657C739.902 796.907 735.627 794.277 730.756 794.789Z" fill="#ECECEC"/>
</g>
<mask id="mask90_2636_4730" style="mask-type:luminance" maskUnits="userSpaceOnUse" x="-314" y="-37" width="1592" height="1288">
<path d="M1158.14 -36.883L-313.351 117.777L-194.262 1250.83L1277.23 1096.17L1158.14 -36.883Z" fill="white"/>
</mask>
<g mask="url(#mask90_2636_4730)">
<path d="M770.774 754.312C736.289 757.936 710.556 782.438 713.347 808.991C716.138 835.545 746.402 854.161 780.887 850.537C815.372 846.912 841.105 822.41 838.314 795.857C835.523 769.304 805.258 750.687 770.774 754.312Z" fill="#ECECEC"/>
</g>
<mask id="mask91_2636_4730" style="mask-type:luminance" maskUnits="userSpaceOnUse" x="-314" y="-37" width="1592" height="1288">
<path d="M1158.14 -36.883L-313.351 117.777L-194.262 1250.83L1277.23 1096.17L1158.14 -36.883Z" fill="white"/>
</mask>
<g mask="url(#mask91_2636_4730)">
<path d="M773.771 783.991C728.228 788.778 694.242 821.138 697.928 856.206C701.614 891.275 741.584 915.861 787.128 911.074C832.672 906.288 866.657 873.928 862.971 838.86C859.285 803.791 819.315 779.205 773.771 783.991Z" fill="#ECECEC"/>
</g>
<mask id="mask92_2636_4730" style="mask-type:luminance" maskUnits="userSpaceOnUse" x="-314" y="-37" width="1592" height="1288">
<path d="M1158.14 -36.883L-313.351 117.777L-194.262 1250.83L1277.23 1096.17L1158.14 -36.883Z" fill="white"/>
</mask>
<g mask="url(#mask92_2636_4730)">
<path d="M712.318 795.306C673.788 799.355 645.036 826.732 648.154 856.4C651.273 886.068 685.088 906.869 723.618 902.819C762.149 898.769 790.9 871.393 787.782 841.725C784.664 812.056 750.848 791.256 712.318 795.306Z" fill="#ECECEC"/>
</g>
<mask id="mask93_2636_4730" style="mask-type:luminance" maskUnits="userSpaceOnUse" x="-314" y="-37" width="1592" height="1288">
<path d="M1158.14 -36.883L-313.351 117.777L-194.262 1250.83L1277.23 1096.17L1158.14 -36.883Z" fill="white"/>
</mask>
<g mask="url(#mask93_2636_4730)">
<path d="M693.855 786.725C666.73 789.576 646.489 808.849 648.685 829.735C650.88 850.621 674.685 865.264 701.81 862.413C728.934 859.562 749.175 840.289 746.98 819.403C744.785 798.517 720.979 783.874 693.855 786.725Z" fill="#ECECEC"/>
</g>
</g>
<mask id="mask94_2636_4730" style="mask-type:luminance" maskUnits="userSpaceOnUse" x="-158" y="-235" width="1539" height="1521">
<path d="M-157.331 582.559L481.86 -234.275L1380.26 468.744L741.07 1285.58L-157.331 582.559Z" fill="white"/>
</mask>
<g mask="url(#mask94_2636_4730)">
<mask id="mask95_2636_4730" style="mask-type:luminance" maskUnits="userSpaceOnUse" x="-158" y="-235" width="1539" height="1521">
<path d="M-157.331 582.559L481.86 -234.275L1380.26 468.744L741.07 1285.58L-157.331 582.559Z" fill="white"/>
</mask>
<g mask="url(#mask95_2636_4730)">
<path d="M680.849 782.732C682.965 780.028 687.097 779.722 690.071 782.049C693.045 784.376 693.742 788.461 691.626 791.165C689.51 793.869 685.378 794.175 682.404 791.848C679.43 789.521 678.733 785.436 680.849 782.732Z" fill="#ECECEC"/>
</g>
<mask id="mask96_2636_4730" style="mask-type:luminance" maskUnits="userSpaceOnUse" x="-158" y="-235" width="1539" height="1521">
<path d="M-157.331 582.559L481.86 -234.275L1380.26 468.744L741.07 1285.58L-157.331 582.559Z" fill="white"/>
</mask>
<g mask="url(#mask96_2636_4730)">
<path d="M633.382 784.78C648.362 765.637 677.619 763.472 698.673 779.947C719.727 796.422 724.659 825.342 709.68 844.484C694.7 863.627 665.443 865.793 644.389 849.317C623.335 832.842 618.403 803.923 633.382 784.78Z" fill="#ECECEC"/>
</g>
<mask id="mask97_2636_4730" style="mask-type:luminance" maskUnits="userSpaceOnUse" x="-158" y="-235" width="1539" height="1521">
<path d="M-157.331 582.559L481.86 -234.275L1380.26 468.744L741.07 1285.58L-157.331 582.559Z" fill="white"/>
</mask>
<g mask="url(#mask97_2636_4730)">
<path d="M656.958 803.12C676.741 777.839 715.38 774.979 743.186 796.738C770.992 818.496 777.506 856.689 757.723 881.971C737.939 907.252 699.301 910.113 671.495 888.354C643.689 866.595 637.175 828.402 656.958 803.12Z" fill="#ECECEC"/>
</g>
<mask id="mask98_2636_4730" style="mask-type:luminance" maskUnits="userSpaceOnUse" x="-158" y="-235" width="1539" height="1521">
<path d="M-157.331 582.559L481.86 -234.275L1380.26 468.744L741.07 1285.58L-157.331 582.559Z" fill="white"/>
</mask>
<g mask="url(#mask98_2636_4730)">
<path d="M687.679 771.707C704.416 750.319 737.105 747.899 760.629 766.307C784.153 784.715 789.664 817.027 772.927 838.415C756.19 859.804 723.501 862.223 699.977 843.815C676.453 825.407 670.942 793.095 687.679 771.707Z" fill="#ECECEC"/>
</g>
<mask id="mask99_2636_4730" style="mask-type:luminance" maskUnits="userSpaceOnUse" x="-158" y="-235" width="1539" height="1521">
<path d="M-157.331 582.559L481.86 -234.275L1380.26 468.744L741.07 1285.58L-157.331 582.559Z" fill="white"/>
</mask>
<g mask="url(#mask99_2636_4730)">
<path d="M686.973 755.608C698.756 740.551 721.768 738.848 738.328 751.807C754.889 764.766 758.768 787.513 746.986 802.57C735.204 817.627 712.191 819.33 695.631 806.371C679.07 793.412 675.191 770.665 686.973 755.608Z" fill="#ECECEC"/>
</g>
</g>
<mask id="mask100_2636_4730" style="mask-type:alpha" maskUnits="userSpaceOnUse" x="484" y="439" width="363" height="409">
<mask id="mask101_2636_4730" style="mask-type:luminance" maskUnits="userSpaceOnUse" x="484" y="439" width="363" height="409">
<path d="M484.368 549.136L656.727 847.719L846.513 738.164L674.154 439.581L484.368 549.136Z" fill="url(#paint21_linear_2636_4730)"/>
</mask>
<g mask="url(#mask101_2636_4730)">
<path d="M484.368 549.136L656.727 847.719L846.513 738.164L674.154 439.581L484.368 549.136Z" fill="url(#paint22_linear_2636_4730)"/>
</g>
</mask>
<g mask="url(#mask100_2636_4730)">
<mask id="mask102_2636_4730" style="mask-type:luminance" maskUnits="userSpaceOnUse" x="-56" y="-74" width="1188" height="1188">
<path d="M1018.39 -73.4872L-55.6911 39.4035L57.1997 1113.49L1131.28 1000.6L1018.39 -73.4872Z" fill="white"/>
</mask>
<g mask="url(#mask102_2636_4730)">
<g opacity="0.2">
<path d="M689.085 736.775C700.893 763.664 709.176 782.524 709.176 782.524M608.715 553.772C608.715 553.772 616.95 572.524 628.705 599.291" stroke="black" stroke-width="5" stroke-linecap="round"/>
<path d="M651.845 611.126C664.194 635.444 687.235 680.82 705.215 716.23" stroke="black" stroke-width="5" stroke-linecap="round"/>
<path d="M591.824 544.232C604.252 578.76 627.442 643.187 645.538 693.463" stroke="black" stroke-width="5"/>
</g>
</g>
</g>
</g>
</mask>
<g mask="url(#mask85_2636_4730)">
<g opacity="0.32">
<mask id="mask103_2636_4730" style="mask-type:luminance" maskUnits="userSpaceOnUse" x="583" y="743" width="276" height="175">
<path d="M816.324 766.179C757.102 730.199 592.597 730.199 583.824 814.151C579.416 856.327 621.138 915.238 713.234 916.951C897.48 920.377 875.546 802.158 816.324 766.179Z" fill="url(#paint23_linear_2636_4730)"/>
</mask>
<g mask="url(#mask103_2636_4730)">
<path d="M816.324 766.179C757.102 730.199 592.597 730.199 583.824 814.151C579.416 856.327 621.138 915.238 713.234 916.951C897.48 920.377 875.546 802.158 816.324 766.179Z" fill="url(#paint24_linear_2636_4730)"/>
</g>
</g>
</g>
</g>
</g>
<defs>
<radialGradient id="paint0_radial_2636_4730" cx="0" cy="0" r="1" gradientUnits="userSpaceOnUse" gradientTransform="translate(607.75 465.523) scale(484.095)">
<stop stop-color="#FDD737"/>
<stop offset="0.65" stop-color="#F4B945"/>
<stop offset="0.88" stop-color="#EA9A52"/>
<stop offset="0.95" stop-color="#F3B751"/>
<stop offset="1" stop-color="#FBD450"/>
</radialGradient>
<linearGradient id="paint1_linear_2636_4730" x1="487.102" y1="515.959" x2="377.525" y2="800.901" gradientUnits="userSpaceOnUse">
<stop stop-color="white" stop-opacity="0.17"/>
<stop offset="0.21" stop-color="white" stop-opacity="0.585"/>
<stop offset="1" stop-color="white"/>
</linearGradient>
<linearGradient id="paint2_linear_2636_4730" x1="487.102" y1="515.959" x2="377.525" y2="800.901" gradientUnits="userSpaceOnUse">
<stop stop-color="#C27631"/>
<stop offset="0.74" stop-color="#C27631"/>
<stop offset="1" stop-color="#C27631"/>
</linearGradient>
<linearGradient id="paint3_linear_2636_4730" x1="586.574" y1="514.774" x2="692.841" y2="800.966" gradientUnits="userSpaceOnUse">
<stop stop-color="white" stop-opacity="0.17"/>
<stop offset="0.21" stop-color="white" stop-opacity="0.585"/>
<stop offset="1" stop-color="white"/>
</linearGradient>
<linearGradient id="paint4_linear_2636_4730" x1="586.574" y1="514.774" x2="692.841" y2="800.966" gradientUnits="userSpaceOnUse">
<stop stop-color="#C27631"/>
<stop offset="0.74" stop-color="#C27631"/>
<stop offset="1" stop-color="#C27631"/>
</linearGradient>
<linearGradient id="paint5_linear_2636_4730" x1="484.59" y1="501.957" x2="354.115" y2="777.955" gradientUnits="userSpaceOnUse">
<stop stop-color="white" stop-opacity="0.17"/>
<stop offset="0.21" stop-color="white" stop-opacity="0.585"/>
<stop offset="1" stop-color="white"/>
</linearGradient>
<linearGradient id="paint6_linear_2636_4730" x1="484.59" y1="501.957" x2="354.115" y2="777.955" gradientUnits="userSpaceOnUse">
<stop stop-color="white"/>
<stop offset="0.74" stop-color="#F4F4F4"/>
<stop offset="1" stop-color="#E9E9E9"/>
</linearGradient>
<linearGradient id="paint7_linear_2636_4730" x1="352.145" y1="772.672" x2="476.086" y2="526.226" gradientUnits="userSpaceOnUse">
<stop stop-color="white" stop-opacity="0"/>
<stop offset="0.11" stop-color="white" stop-opacity="0.5"/>
<stop offset="0.39" stop-color="white"/>
<stop offset="0.69" stop-color="white" stop-opacity="0.5"/>
<stop offset="1" stop-color="white" stop-opacity="0"/>
</linearGradient>
<linearGradient id="paint8_linear_2636_4730" x1="352.145" y1="772.672" x2="476.086" y2="526.226" gradientUnits="userSpaceOnUse">
<stop/>
<stop offset="0.55"/>
<stop offset="1"/>
</linearGradient>
<linearGradient id="paint9_linear_2636_4730" x1="484.589" y1="501.957" x2="354.115" y2="777.955" gradientUnits="userSpaceOnUse">
<stop stop-color="white" stop-opacity="0.17"/>
<stop offset="0.21" stop-color="white" stop-opacity="0.585"/>
<stop offset="1" stop-color="white"/>
</linearGradient>
<linearGradient id="paint10_linear_2636_4730" x1="484.589" y1="501.957" x2="354.115" y2="777.955" gradientUnits="userSpaceOnUse">
<stop stop-color="white"/>
<stop offset="0.74" stop-color="#F4F4F4"/>
<stop offset="1" stop-color="#E9E9E9"/>
</linearGradient>
<linearGradient id="paint11_linear_2636_4730" x1="352.145" y1="772.672" x2="476.086" y2="526.226" gradientUnits="userSpaceOnUse">
<stop stop-color="white" stop-opacity="0"/>
<stop offset="0.11" stop-color="white" stop-opacity="0.5"/>
<stop offset="0.39" stop-color="white"/>
<stop offset="0.69" stop-color="white" stop-opacity="0.5"/>
<stop offset="1" stop-color="white" stop-opacity="0"/>
</linearGradient>
<linearGradient id="paint12_linear_2636_4730" x1="352.145" y1="772.672" x2="476.086" y2="526.226" gradientUnits="userSpaceOnUse">
<stop/>
<stop offset="0.55"/>
<stop offset="1"/>
</linearGradient>
<linearGradient id="paint13_linear_2636_4730" x1="330.301" y1="819.773" x2="198.878" y2="892.414" gradientUnits="userSpaceOnUse">
<stop stop-color="white" stop-opacity="0.17"/>
<stop offset="0.21" stop-color="white" stop-opacity="0.585"/>
<stop offset="1" stop-color="white"/>
</linearGradient>
<linearGradient id="paint14_linear_2636_4730" x1="330.301" y1="819.773" x2="198.878" y2="892.414" gradientUnits="userSpaceOnUse">
<stop stop-color="#EDEDED"/>
<stop offset="0.74" stop-color="#8D8D8D"/>
<stop offset="1" stop-color="#2C2C2C"/>
</linearGradient>
<linearGradient id="paint15_linear_2636_4730" x1="591.002" y1="501.957" x2="721.477" y2="777.955" gradientUnits="userSpaceOnUse">
<stop stop-color="white" stop-opacity="0.17"/>
<stop offset="0.21" stop-color="white" stop-opacity="0.585"/>
<stop offset="1" stop-color="white"/>
</linearGradient>
<linearGradient id="paint16_linear_2636_4730" x1="591.002" y1="501.957" x2="721.477" y2="777.955" gradientUnits="userSpaceOnUse">
<stop stop-color="white"/>
<stop offset="0.74" stop-color="#F4F4F4"/>
<stop offset="1" stop-color="#E9E9E9"/>
</linearGradient>
<linearGradient id="paint17_linear_2636_4730" x1="723.447" y1="772.672" x2="599.506" y2="526.226" gradientUnits="userSpaceOnUse">
<stop stop-color="white" stop-opacity="0"/>
<stop offset="0.11" stop-color="white" stop-opacity="0.5"/>
<stop offset="0.39" stop-color="white"/>
<stop offset="0.69" stop-color="white" stop-opacity="0.5"/>
<stop offset="1" stop-color="white" stop-opacity="0"/>
</linearGradient>
<linearGradient id="paint18_linear_2636_4730" x1="723.447" y1="772.672" x2="599.506" y2="526.226" gradientUnits="userSpaceOnUse">
<stop/>
<stop offset="0.55"/>
<stop offset="1"/>
</linearGradient>
<linearGradient id="paint19_linear_2636_4730" x1="591.002" y1="501.957" x2="721.477" y2="777.955" gradientUnits="userSpaceOnUse">
<stop stop-color="white" stop-opacity="0.17"/>
<stop offset="0.21" stop-color="white" stop-opacity="0.585"/>
<stop offset="1" stop-color="white"/>
</linearGradient>
<linearGradient id="paint20_linear_2636_4730" x1="591.002" y1="501.957" x2="721.477" y2="777.955" gradientUnits="userSpaceOnUse">
<stop stop-color="white"/>
<stop offset="0.74" stop-color="#F4F4F4"/>
<stop offset="1" stop-color="#E9E9E9"/>
</linearGradient>
<linearGradient id="paint21_linear_2636_4730" x1="723.447" y1="772.672" x2="599.506" y2="526.226" gradientUnits="userSpaceOnUse">
<stop stop-color="white" stop-opacity="0"/>
<stop offset="0.11" stop-color="white" stop-opacity="0.5"/>
<stop offset="0.39" stop-color="white"/>
<stop offset="0.69" stop-color="white" stop-opacity="0.5"/>
<stop offset="1" stop-color="white" stop-opacity="0"/>
</linearGradient>
<linearGradient id="paint22_linear_2636_4730" x1="723.447" y1="772.672" x2="599.506" y2="526.226" gradientUnits="userSpaceOnUse">
<stop/>
<stop offset="0.55"/>
<stop offset="1"/>
</linearGradient>
<linearGradient id="paint23_linear_2636_4730" x1="744.054" y1="804.477" x2="678.46" y2="896.613" gradientUnits="userSpaceOnUse">
<stop stop-color="white" stop-opacity="0.17"/>
<stop offset="0.21" stop-color="white" stop-opacity="0.585"/>
<stop offset="1" stop-color="white"/>
</linearGradient>
<linearGradient id="paint24_linear_2636_4730" x1="744.054" y1="804.477" x2="678.46" y2="896.613" gradientUnits="userSpaceOnUse">
<stop stop-color="#EDEDED"/>
<stop offset="0.74" stop-color="#8D8D8D"/>
<stop offset="1" stop-color="#2C2C2C"/>
</linearGradient>
<clipPath id="clip0_2636_4730">
<rect width="1080" height="1080" fill="white"/>
</clipPath>
</defs>
</svg>
