<svg width="1080" height="1080" viewBox="0 0 1080 1080" fill="none" xmlns="http://www.w3.org/2000/svg">
<g clip-path="url(#clip0_2636_5614)">
<mask id="mask0_2636_5614" style="mask-type:luminance" maskUnits="userSpaceOnUse" x="0" y="0" width="1080" height="1080">
<path d="M1080 0H0V1080H1080V0Z" fill="white"/>
</mask>
<g mask="url(#mask0_2636_5614)">
<mask id="mask1_2636_5614" style="mask-type:luminance" maskUnits="userSpaceOnUse" x="0" y="0" width="1080" height="1080">
<path d="M0 0H1080V1080H0V0Z" fill="white"/>
</mask>
<g mask="url(#mask1_2636_5614)">
<path d="M540 155C752.482 155 925 327.518 925 540C925 752.482 752.482 925 540 925C327.518 925 155 752.482 155 540C155 327.518 327.518 155 540 155Z" fill="url(#paint0_radial_2636_5614)"/>
</g>
<path d="M459.921 352.516C410 400.098 338.936 388.396 338.936 388.396" stroke="black" stroke-width="30" stroke-linecap="round" stroke-linejoin="round"/>
<path d="M620.079 352.516C670 400.098 741.064 388.396 741.064 388.396" stroke="black" stroke-width="30" stroke-linecap="round" stroke-linejoin="round"/>
<path d="M490.5 729.948C504.727 721.595 522.289 719.626 540.473 719.573C558.504 719.52 575.892 722.218 589.5 729.948C582.693 713.871 566.456 703.75 540 703.75C513.99 703.75 495.761 714.489 490.5 729.948Z" stroke="black" stroke-width="30" stroke-linecap="round" stroke-linejoin="round"/>
<path d="M490.5 729.948C504.727 721.595 522.289 719.626 540.473 719.573C558.504 719.52 575.892 722.218 589.5 729.948C582.693 713.871 566.456 703.75 540 703.75C513.99 703.75 495.761 714.489 490.5 729.948Z" fill="black"/>
<path d="M418.2 421.044C467.319 421.044 507.2 460.924 507.2 510.044C507.2 559.163 467.319 599.044 418.2 599.044C369.081 599.044 329.2 559.163 329.2 510.044C329.2 460.924 369.081 421.044 418.2 421.044Z" fill="black"/>
<path d="M374.221 451.226C400.094 432.744 433.665 435.326 449.14 456.989C464.615 478.652 456.172 511.247 430.299 529.729C404.426 548.211 370.855 545.629 355.38 523.966C339.906 502.303 348.348 469.708 374.221 451.226Z" fill="white"/>
<path d="M451.071 542.441C457.858 542.441 463.369 547.951 463.369 554.739C463.369 561.526 457.858 567.036 451.071 567.036C444.284 567.036 438.774 561.526 438.774 554.739C438.774 547.951 444.284 542.441 451.071 542.441Z" fill="white"/>
<path d="M661.8 421.044C612.681 421.044 572.8 460.924 572.8 510.044C572.8 559.163 612.681 599.044 661.8 599.044C710.919 599.044 750.8 559.163 750.8 510.044C750.8 460.924 710.919 421.044 661.8 421.044Z" fill="black"/>
<path d="M616.221 451.226C642.094 432.744 675.665 435.326 691.14 456.989C706.615 478.652 698.172 511.247 672.299 529.729C646.426 548.211 612.855 545.629 597.38 523.966C581.906 502.303 590.348 469.708 616.221 451.226Z" fill="white"/>
<path d="M693.071 542.441C699.858 542.441 705.369 547.951 705.369 554.739C705.369 561.526 699.858 567.036 693.071 567.036C686.284 567.036 680.774 561.526 680.774 554.739C680.774 547.951 686.284 542.441 693.071 542.441Z" fill="white"/>
<g opacity="0.6">
<path d="M709.598 604.772C709.598 604.772 753.049 691.259 753.049 721.594C753.049 751.928 733.595 776.52 709.598 776.52C685.6 776.52 666.146 751.928 666.146 721.594C666.146 691.259 709.598 604.772 709.598 604.772Z" fill="#DA812F"/>
</g>
<path d="M714 592.702C714 592.702 755.93 681.625 755.93 712.814C755.93 744.002 737.157 769.286 714 769.286C690.843 769.286 672.07 744.002 672.07 712.814C672.07 681.625 714 592.702 714 592.702Z" fill="url(#paint1_linear_2636_5614)"/>
<g opacity="0.502">
<path d="M714 614.996C714 614.996 740.054 667.034 740.054 685.286C740.054 703.538 728.389 718.334 714 718.334C699.611 718.334 687.946 703.538 687.946 685.286C687.946 667.034 714 614.996 714 614.996Z" fill="url(#paint2_linear_2636_5614)"/>
</g>
</g>
</g>
<defs>
<radialGradient id="paint0_radial_2636_5614" cx="0" cy="0" r="1" gradientUnits="userSpaceOnUse" gradientTransform="translate(607.75 465.523) scale(484.095)">
<stop stop-color="#FDD737"/>
<stop offset="0.65" stop-color="#F4B945"/>
<stop offset="0.88" stop-color="#EA9A52"/>
<stop offset="0.95" stop-color="#F3B751"/>
<stop offset="1" stop-color="#FBD450"/>
</radialGradient>
<linearGradient id="paint1_linear_2636_5614" x1="726.532" y1="650.753" x2="658.093" y2="714.163" gradientUnits="userSpaceOnUse">
<stop stop-color="#59CFFF"/>
<stop offset="0.5" stop-color="#43B3FF"/>
<stop offset="1" stop-color="#2D97FF"/>
</linearGradient>
<linearGradient id="paint2_linear_2636_5614" x1="713.503" y1="621.004" x2="714.336" y2="717.783" gradientUnits="userSpaceOnUse">
<stop stop-color="white"/>
<stop offset="0.5" stop-color="white" stop-opacity="0.5"/>
<stop offset="0.99" stop-color="white" stop-opacity="0"/>
</linearGradient>
<clipPath id="clip0_2636_5614">
<rect width="1080" height="1080" fill="white"/>
</clipPath>
</defs>
</svg>
