<svg width="1080" height="1080" viewBox="0 0 1080 1080" fill="none" xmlns="http://www.w3.org/2000/svg">
<g clip-path="url(#clip0_2636_5690)">
<mask id="mask0_2636_5690" style="mask-type:luminance" maskUnits="userSpaceOnUse" x="0" y="0" width="1080" height="1080">
<path d="M1080 0H0V1080H1080V0Z" fill="white"/>
</mask>
<g mask="url(#mask0_2636_5690)">
<mask id="mask1_2636_5690" style="mask-type:luminance" maskUnits="userSpaceOnUse" x="-153" y="-153" width="1386" height="1386">
<path d="M-152.125 217.257L862.743 -152.125L1232.12 862.743L217.257 1232.12L-152.125 217.257Z" fill="white"/>
</mask>
<g mask="url(#mask1_2636_5690)">
<path d="M408.322 178.218C607.989 105.545 829.109 208.655 901.782 408.322C974.455 607.99 871.345 829.109 671.678 901.782C472.01 974.455 250.891 871.345 178.218 671.678C105.545 472.01 208.655 250.891 408.322 178.218Z" fill="url(#paint0_radial_2636_5690)"/>
</g>
<path d="M779 552.982C772.847 552.738 766.531 553.763 759.835 555.827C722.175 567.439 672.424 611.951 571.102 648.829C468.225 686.274 396.584 672.017 369.657 696.802C366.95 699.294 364.696 702.18 362.906 705.554C361.26 708.657 360.67 712.498 361.08 716.886C365.397 763.007 480.228 869.514 640.292 813.48C790.359 760.946 819.07 591.52 789.97 558.557C786.922 555.105 783.243 553.15 779 552.982Z" fill="url(#paint1_linear_2636_5690)"/>
<mask id="mask2_2636_5690" style="mask-type:luminance" maskUnits="userSpaceOnUse" x="281" y="611" width="679" height="610">
<path d="M624.591 1210.11C36.6325 1314.17 375.208 622.441 413.828 729.552C418.182 741.626 496.534 771.899 494.561 763.144C490.024 743.015 505.299 718.874 529.496 713.421C568.993 704.52 586.618 716.771 598.812 714.023C610.519 711.385 618.979 693.205 657.251 684.58C682.71 678.843 708.319 692.77 712.641 711.948C720.555 747.067 775.356 665.011 764.034 614.771C752.712 564.531 1292 1092 624.591 1210.11Z" fill="white"/>
</mask>
<g mask="url(#mask2_2636_5690)">
<path d="M596.456 705.841C613.108 757.1 619.732 821.039 615.162 887.74" stroke="url(#paint2_linear_2636_5690)" stroke-width="224" stroke-linecap="round"/>
</g>
<mask id="mask3_2636_5690" style="mask-type:luminance" maskUnits="userSpaceOnUse" x="360" y="551" width="440" height="278">
<path d="M778.584 551.815C772.43 551.571 766.116 552.595 759.419 554.66C721.76 566.272 672.008 610.784 570.686 647.662C467.809 685.107 396.168 670.849 369.241 695.635C366.534 698.127 364.279 701.013 362.489 704.387C360.843 707.49 360.253 711.33 360.663 715.717C364.98 761.838 479.811 868.346 639.875 812.312C789.943 759.777 818.653 590.351 789.553 557.389C786.506 553.937 782.826 551.983 778.584 551.815Z" fill="white"/>
</mask>
<g mask="url(#mask3_2636_5690)">
<path d="M473.323 356.807C753.376 254.876 1004.69 237.881 1034.18 318.881C1063.66 399.881 860.212 548.406 580.159 650.337C300.106 752.268 48.7885 769.262 19.3071 688.263C-10.1744 607.263 193.27 458.738 473.323 356.807Z" fill="white"/>
</g>
<path d="M600.927 289.292C656.328 269.127 717.586 297.692 737.75 353.094C757.915 408.495 729.35 469.753 673.949 489.917C618.547 510.081 557.29 481.517 537.125 426.115C516.961 370.714 545.526 309.456 600.927 289.292Z" fill="#F9FBFD"/>
<path d="M625.267 356.167C643.722 349.45 664.158 358.98 670.875 377.434C677.592 395.888 668.062 416.325 649.608 423.042C631.154 429.759 610.717 420.229 604 401.775C597.283 383.32 606.813 362.884 625.267 356.167Z" fill="black"/>
<path d="M311.441 525.111C304.314 505.531 321.306 473.437 352.541 462.069C383.775 450.7 417.421 464.363 424.548 483.943" stroke="black" stroke-width="29.72" stroke-linecap="round"/>
</g>
</g>
<defs>
<radialGradient id="paint0_radial_2636_5690" cx="0" cy="0" r="1" gradientUnits="userSpaceOnUse" gradientTransform="translate(578.191 446.843) rotate(-20) scale(484.095)">
<stop stop-color="#FDD737"/>
<stop offset="0.65" stop-color="#F4B945"/>
<stop offset="0.88" stop-color="#EA9A52"/>
<stop offset="0.95" stop-color="#F3B751"/>
<stop offset="1" stop-color="#FBD450"/>
</radialGradient>
<linearGradient id="paint1_linear_2636_5690" x1="563.628" y1="610.012" x2="633.589" y2="798.418" gradientUnits="userSpaceOnUse">
<stop stop-color="#303030"/>
<stop offset="0.47" stop-color="#181818"/>
<stop offset="1"/>
</linearGradient>
<linearGradient id="paint2_linear_2636_5690" x1="594.677" y1="691.143" x2="655.405" y2="979.434" gradientUnits="userSpaceOnUse">
<stop stop-color="#741B1B"/>
<stop offset="0.34" stop-color="#AC2C2C"/>
<stop offset="1" stop-color="#E53D3D"/>
</linearGradient>
<clipPath id="clip0_2636_5690">
<rect width="1080" height="1080" fill="white"/>
</clipPath>
</defs>
</svg>
