<svg width="1080" height="1080" viewBox="0 0 1080 1080" fill="none" xmlns="http://www.w3.org/2000/svg">
<g clip-path="url(#clip0_2636_5744)">
<mask id="mask0_2636_5744" style="mask-type:luminance" maskUnits="userSpaceOnUse" x="0" y="0" width="1080" height="1080">
<path d="M1080 0H0V1080H1080V0Z" fill="white"/>
</mask>
<g mask="url(#mask0_2636_5744)">
<mask id="mask1_2636_5744" style="mask-type:luminance" maskUnits="userSpaceOnUse" x="0" y="0" width="1080" height="1080">
<path d="M0 0H1080V1080H0V0Z" fill="white"/>
</mask>
<g mask="url(#mask1_2636_5744)">
<mask id="mask2_2636_5744" style="mask-type:luminance" maskUnits="userSpaceOnUse" x="0" y="0" width="1080" height="1080">
<path d="M0 0H1080V1080H0V0Z" fill="white"/>
</mask>
<g mask="url(#mask2_2636_5744)">
<path d="M540 155C752.482 155 925 327.518 925 540C925 752.482 752.482 925 540 925C327.518 925 155 752.482 155 540C155 327.518 327.518 155 540 155Z" fill="url(#paint0_radial_2636_5744)"/>
</g>
<path d="M459.296 462.41C453.796 475.678 434.067 488.178 404.796 488.178C375.525 488.178 355.296 474.678 350.296 462.41" stroke="black" stroke-width="25" stroke-linecap="round"/>
<path d="M624.296 462.41C629.796 475.678 649.525 488.178 678.796 488.178C708.067 488.178 728.296 474.678 733.296 462.41" stroke="black" stroke-width="25" stroke-linecap="round"/>
<path d="M543 623.73C572.222 623.73 595.948 647.456 595.948 676.678C595.948 705.9 572.222 729.626 543 729.626C513.778 729.626 490.052 705.9 490.052 676.678C490.052 647.456 513.778 623.73 543 623.73Z" fill="black"/>
<mask id="mask3_2636_5744" style="mask-type:luminance" maskUnits="userSpaceOnUse" x="0" y="0" width="1080" height="1080">
<path d="M0 0H1080V1080H0V0Z" fill="white"/>
</mask>
<g mask="url(#mask3_2636_5744)">
<g opacity="0.36">
<mask id="mask4_2636_5744" style="mask-type:luminance" maskUnits="userSpaceOnUse" x="155" y="155" width="770" height="770">
<path d="M540 155C752.63 155 925 327.37 925 540C925 752.63 752.63 925 540 925C327.37 925 155 752.63 155 540C155 327.37 327.37 155 540 155Z" fill="white"/>
</mask>
<g mask="url(#mask4_2636_5744)">
<mask id="mask5_2636_5744" style="mask-type:luminance" maskUnits="userSpaceOnUse" x="-46" y="50" width="1080" height="1080">
<path d="M-46 50H1034V1130H-46V50Z" fill="white"/>
</mask>
<g mask="url(#mask5_2636_5744)">
<path d="M913.449 279.291L857.624 281.928L916.006 181.067L810.684 186.042L811.965 213.141L862.659 210.746L804.116 311.787L914.738 306.561L913.449 279.291Z" fill="#EA9A52"/>
</g>
<mask id="mask6_2636_5744" style="mask-type:luminance" maskUnits="userSpaceOnUse" x="-46" y="50" width="1080" height="1080">
<path d="M-46 50H1034V1130H-46V50Z" fill="white"/>
</mask>
<g mask="url(#mask6_2636_5744)">
<g opacity="0.902473">
<path d="M867.513 533.178L836.346 523.596L888.324 479.762L829.524 461.683L824.872 476.813L853.174 485.514L801.072 529.414L862.832 548.403L867.513 533.178Z" fill="#EA9A52"/>
</g>
</g>
</g>
</g>
</g>
<mask id="mask7_2636_5744" style="mask-type:luminance" maskUnits="userSpaceOnUse" x="0" y="0" width="1080" height="1080">
<path d="M0 0H1080V1080H0V0Z" fill="white"/>
</mask>
<g mask="url(#mask7_2636_5744)">
<mask id="mask8_2636_5744" style="mask-type:luminance" maskUnits="userSpaceOnUse" x="0" y="0" width="1080" height="1080">
<path d="M0 0H1080V1080H0V0Z" fill="white"/>
</mask>
<g mask="url(#mask8_2636_5744)">
<g opacity="0.0379444">
<path d="M895.473 75.2982L888.7 77.7468L892.051 63.1077L879.273 67.7272L880.462 71.0149L886.612 68.7914L883.248 83.4587L896.669 78.6067L895.473 75.2982Z" fill="#4CBDFF"/>
</g>
</g>
<mask id="mask9_2636_5744" style="mask-type:luminance" maskUnits="userSpaceOnUse" x="0" y="0" width="1080" height="1080">
<path d="M0 0H1080V1080H0V0Z" fill="white"/>
</mask>
<g mask="url(#mask9_2636_5744)">
<path d="M955.935 236.747L900.11 239.384L958.492 138.523L853.17 143.498L854.451 170.597L905.145 168.202L846.602 269.243L957.224 264.017L955.935 236.747Z" fill="#4CBDFF"/>
</g>
<mask id="mask10_2636_5744" style="mask-type:luminance" maskUnits="userSpaceOnUse" x="0" y="0" width="1080" height="1080">
<path d="M0 0H1080V1080H0V0Z" fill="white"/>
</mask>
<g mask="url(#mask10_2636_5744)">
<g opacity="0.01">
<path d="M893.64 72.45L888.022 74.7195L890.383 62.309L879.785 66.5906L880.887 69.3173L885.988 67.2564L883.617 79.691L894.748 75.1939L893.64 72.45Z" fill="#4CBDFF"/>
</g>
</g>
<mask id="mask11_2636_5744" style="mask-type:luminance" maskUnits="userSpaceOnUse" x="0" y="0" width="1080" height="1080">
<path d="M0 0H1080V1080H0V0Z" fill="white"/>
</mask>
<g mask="url(#mask11_2636_5744)">
<g opacity="0.902473">
<path d="M897.78 504.106L866.614 494.524L918.591 450.69L859.791 432.611L855.14 447.74L883.442 456.442L831.34 500.342L893.099 519.331L897.78 504.106Z" fill="#4CBDFF"/>
</g>
</g>
</g>
</g>
</g>
</g>
<defs>
<radialGradient id="paint0_radial_2636_5744" cx="0" cy="0" r="1" gradientUnits="userSpaceOnUse" gradientTransform="translate(607.75 465.523) scale(484.095)">
<stop stop-color="#FDD737"/>
<stop offset="0.65" stop-color="#F4B945"/>
<stop offset="0.88" stop-color="#EA9A52"/>
<stop offset="0.95" stop-color="#F3B751"/>
<stop offset="1" stop-color="#FBD450"/>
</radialGradient>
<clipPath id="clip0_2636_5744">
<rect width="1080" height="1080" fill="white"/>
</clipPath>
</defs>
</svg>
