<svg width="80" height="80" viewBox="0 0 80 80" fill="none" xmlns="http://www.w3.org/2000/svg">
<circle cx="40" cy="40" r="40" fill="#4B26B5"/>
<path d="M21.2287 35.3606H17.2871V51.5407H21.2287V35.3606Z" fill="white"/>
<path d="M29.5265 35.3606H25.585V45.6289H29.5265V35.3606Z" fill="white"/>
<path d="M35.1333 35.3606H37.8234V45.6289H35.1333C34.4424 45.6289 33.8818 45.0684 33.8818 44.3775V36.612C33.8818 35.9211 34.4424 35.3606 35.1333 35.3606Z" fill="white"/>
<path d="M42.1797 35.3606H44.8698C45.5607 35.3606 46.1213 35.9211 46.1213 36.612V44.3775C46.1213 45.0684 45.5607 45.6289 44.8698 45.6289H42.1797V35.3606Z" fill="white"/>
<path d="M54.4191 27.771H50.4775V45.6289H54.4191V27.771Z" fill="white"/>
<path d="M62.716 30.8717H58.7744V45.6289H62.716V30.8717Z" fill="white"/>
<path d="M24.2006 31.457H26.4713V32.6768H22.8809V27.3066H24.2006V31.457Z" fill="#B8A0CB"/>
<path d="M27.2305 32.6768V27.3066H28.5502V32.6768H27.2305Z" fill="#B8A0CB"/>
<path d="M34.3353 31.9479L35.0793 32.9987L33.9823 33.758L33.2148 32.6299C32.9156 32.7223 32.5859 32.7754 32.2405 32.7754C30.5911 32.7754 29.3789 31.6018 29.3789 29.9904C29.3789 28.3789 30.5911 27.2053 32.2405 27.2053C33.8899 27.2053 35.1021 28.3789 35.1021 29.9904C35.1021 30.773 34.818 31.4556 34.3347 31.9466L34.3353 31.9479ZM32.2411 31.5721C33.1313 31.5721 33.7602 30.9198 33.7602 29.9916C33.7602 29.0635 33.1313 28.4112 32.2411 28.4112C31.351 28.4112 30.7297 29.0635 30.7297 29.9916C30.7297 30.9198 31.3586 31.5721 32.2411 31.5721Z" fill="#B8A0CB"/>
<path d="M35.8916 30.5599V27.3066H37.2114V30.4523C37.2114 31.1811 37.5492 31.5645 38.1933 31.5645C38.8373 31.5645 39.1752 31.1811 39.1752 30.4523V27.3066H40.495V30.5599C40.495 31.9486 39.6124 32.7692 38.1933 32.7692C36.7742 32.7692 35.8916 31.9486 35.8916 30.5599Z" fill="#B8A0CB"/>
<path d="M41.5381 32.6768V27.3066H42.8578V32.6768H41.5381Z" fill="#B8A0CB"/>
<path d="M46.0952 27.3066C47.7756 27.3066 48.8644 28.3651 48.8644 29.9917C48.8644 31.6183 47.775 32.6768 46.0952 32.6768H43.9473V27.3066H46.0952ZM45.9573 31.4804C46.9626 31.4804 47.5377 30.9357 47.5377 29.9924C47.5377 29.049 46.9626 28.5037 45.9573 28.5037H45.267V31.4804H45.9573Z" fill="#B8A0CB"/>
<path d="M49.3669 47.3245C50.6633 47.3245 51.4459 48.0609 51.4459 49.2503C51.4459 50.4398 50.6633 51.1762 49.3669 51.1762H48.5463V52.6953H47.2266V47.3251H49.3669V47.3245ZM49.229 50.0861C49.7889 50.0861 50.1192 49.7792 50.1192 49.2649C50.1192 48.7505 49.7895 48.4443 49.229 48.4443H48.5229V50.0861H49.229Z" fill="#FAAF40"/>
<path d="M55.1889 52.6946L54.176 50.9605H53.4623V52.6946H52.1426V47.3245H54.3981C55.6406 47.3245 56.4543 48.0533 56.4543 49.1428C56.4543 49.9102 56.0861 50.4777 55.4338 50.7618L56.6232 52.6953H55.1883L55.1889 52.6946ZM54.2684 48.4057H53.4396V49.9634H54.2684C54.8283 49.9634 55.1351 49.6793 55.1351 49.1883C55.1351 48.6974 54.8283 48.4057 54.2684 48.4057Z" fill="#FAAF40"/>
<path d="M56.9922 50.0095C56.9922 48.3987 58.2044 47.2245 59.8538 47.2245C61.5032 47.2245 62.7154 48.3981 62.7154 50.0095C62.7154 51.621 61.5184 52.7946 59.8538 52.7946C58.1892 52.7946 56.9922 51.621 56.9922 50.0095ZM61.3728 50.0095C61.3728 49.0814 60.744 48.4291 59.8538 48.4291C58.9636 48.4291 58.3423 49.0814 58.3423 50.0095C58.3423 50.9377 58.9712 51.59 59.8538 51.59C60.7364 51.59 61.3728 50.9377 61.3728 50.0095Z" fill="#FAAF40"/>
</svg>
