<svg width="52" height="52" viewBox="0 0 52 52" fill="none" xmlns="http://www.w3.org/2000/svg">
<g filter="url(#filter0_d_1537_1548)">
<path d="M22.554 5.74151C23.0186 4.75426 23.2509 4.26063 23.5662 4.10291C23.8406 3.9657 24.1594 3.9657 24.4338 4.10291C24.7491 4.26063 24.9814 4.75426 25.446 5.74151L29.8538 15.1078C29.991 15.3993 30.0595 15.545 30.1598 15.6582C30.2485 15.7584 30.3549 15.8395 30.4732 15.8972C30.6067 15.9623 30.76 15.9858 31.0666 16.0328L40.9262 17.5444C41.9644 17.7036 42.4835 17.7832 42.7238 18.0492C42.9328 18.2806 43.0311 18.5986 42.9913 18.9146C42.9456 19.2779 42.5698 19.6618 41.8181 20.4298L34.6863 27.7157C34.464 27.9429 34.3529 28.0564 34.2811 28.1916C34.2176 28.3112 34.1769 28.4426 34.1612 28.5786C34.1434 28.7321 34.1696 28.8925 34.2221 29.2134L35.9049 39.5045C36.0824 40.5899 36.1711 41.1326 36.0043 41.4547C35.8592 41.7349 35.6013 41.9314 35.3024 41.9896C34.9588 42.0564 34.4942 41.8001 33.5649 41.2875L24.7506 36.4255C24.476 36.274 24.3386 36.1982 24.194 36.1685C24.0659 36.1421 23.9341 36.1421 23.806 36.1685C23.6614 36.1982 23.524 36.274 23.2494 36.4255L14.4351 41.2875C13.5058 41.8001 13.0412 42.0564 12.6976 41.9896C12.3987 41.9314 12.1408 41.7349 11.9957 41.4547C11.8289 41.1326 11.9176 40.5899 12.0951 39.5045L13.7779 29.2134C13.8304 28.8925 13.8566 28.7321 13.8388 28.5786C13.8231 28.4426 13.7824 28.3112 13.7189 28.1916C13.6471 28.0564 13.536 27.9429 13.3137 27.7157L6.18191 20.4298C5.43025 19.6618 5.05442 19.2779 5.00868 18.9146C4.96889 18.5986 5.06719 18.2806 5.27622 18.0492C5.51647 17.7832 6.03559 17.7036 7.07385 17.5444L16.9334 16.0328C17.24 15.9858 17.3933 15.9623 17.5268 15.8972C17.6451 15.8395 17.7515 15.7584 17.8402 15.6582C17.9404 15.545 18.009 15.3993 18.1462 15.1078L22.554 5.74151Z" fill="url(#paint0_linear_1537_1548)"/>
<path d="M22.554 5.74151C23.0186 4.75426 23.2509 4.26063 23.5662 4.10291C23.8406 3.9657 24.1594 3.9657 24.4338 4.10291C24.7491 4.26063 24.9814 4.75426 25.446 5.74151L29.8538 15.1078C29.991 15.3993 30.0595 15.545 30.1598 15.6582C30.2485 15.7584 30.3549 15.8395 30.4732 15.8972C30.6067 15.9623 30.76 15.9858 31.0666 16.0328L40.9262 17.5444C41.9644 17.7036 42.4835 17.7832 42.7238 18.0492C42.9328 18.2806 43.0311 18.5986 42.9913 18.9146C42.9456 19.2779 42.5698 19.6618 41.8181 20.4298L34.6863 27.7157C34.464 27.9429 34.3529 28.0564 34.2811 28.1916C34.2176 28.3112 34.1769 28.4426 34.1612 28.5786C34.1434 28.7321 34.1696 28.8925 34.2221 29.2134L35.9049 39.5045C36.0824 40.5899 36.1711 41.1326 36.0043 41.4547C35.8592 41.7349 35.6013 41.9314 35.3024 41.9896C34.9588 42.0564 34.4942 41.8001 33.5649 41.2875L24.7506 36.4255C24.476 36.274 24.3386 36.1982 24.194 36.1685C24.0659 36.1421 23.9341 36.1421 23.806 36.1685C23.6614 36.1982 23.524 36.274 23.2494 36.4255L14.4351 41.2875C13.5058 41.8001 13.0412 42.0564 12.6976 41.9896C12.3987 41.9314 12.1408 41.7349 11.9957 41.4547C11.8289 41.1326 11.9176 40.5899 12.0951 39.5045L13.7779 29.2134C13.8304 28.8925 13.8566 28.7321 13.8388 28.5786C13.8231 28.4426 13.7824 28.3112 13.7189 28.1916C13.6471 28.0564 13.536 27.9429 13.3137 27.7157L6.18191 20.4298C5.43025 19.6618 5.05442 19.2779 5.00868 18.9146C4.96889 18.5986 5.06719 18.2806 5.27622 18.0492C5.51647 17.7832 6.03559 17.7036 7.07385 17.5444L16.9334 16.0328C17.24 15.9858 17.3933 15.9623 17.5268 15.8972C17.6451 15.8395 17.7515 15.7584 17.8402 15.6582C17.9404 15.545 18.009 15.3993 18.1462 15.1078L22.554 5.74151Z" stroke="#FFF0EA" stroke-width="3" stroke-linecap="round" stroke-linejoin="bevel"/>
</g>
<defs>
<filter id="filter0_d_1537_1548" x="0.5" y="0.5" width="51" height="50.9999" filterUnits="userSpaceOnUse" color-interpolation-filters="sRGB">
<feFlood flood-opacity="0" result="BackgroundImageFix"/>
<feColorMatrix in="SourceAlpha" type="matrix" values="0 0 0 0 0 0 0 0 0 0 0 0 0 0 0 0 0 0 127 0" result="hardAlpha"/>
<feOffset dx="2" dy="3"/>
<feGaussianBlur stdDeviation="2.5"/>
<feComposite in2="hardAlpha" operator="out"/>
<feColorMatrix type="matrix" values="0 0 0 0 0.24974 0 0 0 0 0.281849 0 0 0 0 0.570833 0 0 0 0.41 0"/>
<feBlend mode="normal" in2="BackgroundImageFix" result="effect1_dropShadow_1537_1548"/>
<feBlend mode="normal" in="SourceGraphic" in2="effect1_dropShadow_1537_1548" result="shape"/>
</filter>
<linearGradient id="paint0_linear_1537_1548" x1="24" y1="4" x2="24" y2="42" gradientUnits="userSpaceOnUse">
<stop stop-color="#5F64EB"/>
<stop offset="1" stop-color="#B9BCFF"/>
</linearGradient>
</defs>
</svg>
